<svg width="178" height="119" viewBox="0 0 178 119" fill="none" xmlns="http://www.w3.org/2000/svg">
<rect x="5.12502" y="10.1125" width="168.438" height="108.412" rx="9.8" fill="#EFE8FF" fill-opacity="0.95"/>
<rect x="0.837585" y="0.3125" width="177.013" height="108.412" rx="9.8" fill="url(#paint0_linear_1_184)"/>
<mask id="mask0_1_184" style="mask-type:alpha" maskUnits="userSpaceOnUse" x="0" y="0" width="178" height="109">
<rect x="0.837585" y="0.3125" width="177.013" height="108.412" rx="7.35" fill="url(#paint1_linear_1_184)"/>
</mask>
<g mask="url(#mask0_1_184)">
<circle cx="6.34999" cy="98.3126" r="31.2375" stroke="url(#paint2_linear_1_184)" stroke-opacity="0.8" stroke-width="12.25"/>
<circle cx="157.025" cy="15.6251" r="31.2375" stroke="url(#paint3_linear_1_184)" stroke-opacity="0.8" stroke-width="12.25"/>
<g filter="url(#filter0_b_1_184)">
<rect x="130.075" y="83.6125" width="37.975" height="15.3125" rx="7.65625" fill="white" fill-opacity="0.23"/>
<path d="M140.747 93.3884V91.9478H139.335V91.1834H140.747V89.7869H141.533V91.1834H142.937V91.9478H141.533V93.3884H140.747ZM144.081 93.675V92.7342H145.257V89.4488H145.793L144.206 90.3749V89.3018L145.587 88.4933H146.403V92.7342H147.506V93.675H144.081ZM149.95 93.7559C149.328 93.7559 148.848 93.5231 148.51 93.0576C148.177 92.5872 148.01 91.9233 148.01 91.0658C148.01 90.2034 148.177 89.5468 148.51 89.096C148.848 88.6403 149.328 88.4124 149.95 88.4124C150.578 88.4124 151.058 88.6403 151.391 89.096C151.724 89.5468 151.891 90.2009 151.891 91.0584C151.891 91.9208 151.724 92.5872 151.391 93.0576C151.058 93.5231 150.578 93.7559 149.95 93.7559ZM149.95 92.8298C150.235 92.8298 150.445 92.6901 150.582 92.4108C150.725 92.1266 150.796 91.6783 150.796 91.0658C150.796 90.6542 150.764 90.3234 150.7 90.0735C150.641 89.8187 150.548 89.6325 150.421 89.5149C150.298 89.3973 150.141 89.3385 149.95 89.3385C149.666 89.3385 149.453 89.4733 149.311 89.7428C149.174 90.0123 149.105 90.4533 149.105 91.0658C149.105 91.4725 149.137 91.8057 149.201 92.0654C149.264 92.3251 149.357 92.5186 149.48 92.646C149.607 92.7685 149.764 92.8298 149.95 92.8298ZM154.622 93.675H153.681L156.724 88.4933H157.665L154.622 93.675ZM153.769 91.5803C153.343 91.5803 153.01 91.4382 152.77 91.154C152.53 90.8649 152.41 90.4778 152.41 89.9927C152.41 89.5027 152.53 89.118 152.77 88.8387C153.015 88.5545 153.348 88.4124 153.769 88.4124C154.196 88.4124 154.529 88.557 154.769 88.8461C155.009 89.1303 155.129 89.5125 155.129 89.9927C155.129 90.4778 155.009 90.8649 154.769 91.154C154.529 91.4382 154.196 91.5803 153.769 91.5803ZM153.769 90.8967C153.916 90.8967 154.029 90.8257 154.108 90.6836C154.191 90.5415 154.233 90.3112 154.233 89.9927C154.233 89.6693 154.191 89.4414 154.108 89.3091C154.029 89.1768 153.916 89.1107 153.769 89.1107C153.618 89.1107 153.502 89.1768 153.424 89.3091C153.346 89.4365 153.306 89.6644 153.306 89.9927C153.306 90.321 153.346 90.5537 153.424 90.6909C153.502 90.8281 153.618 90.8967 153.769 90.8967ZM157.577 93.7559C157.15 93.7559 156.817 93.6113 156.577 93.3222C156.337 93.0331 156.217 92.646 156.217 92.1609C156.217 91.6709 156.337 91.2863 156.577 91.007C156.822 90.7277 157.155 90.588 157.577 90.588C158.008 90.588 158.341 90.7301 158.576 91.0143C158.816 91.2985 158.937 91.6807 158.937 92.1609C158.937 92.646 158.816 93.0331 158.576 93.3222C158.341 93.6113 158.008 93.7559 157.577 93.7559ZM157.577 93.0576C157.729 93.0576 157.844 92.989 157.922 92.8518C158.006 92.7097 158.047 92.4794 158.047 92.1609C158.047 91.8375 158.006 91.6097 157.922 91.4774C157.844 91.3402 157.729 91.2716 157.577 91.2716C157.43 91.2716 157.315 91.3377 157.231 91.47C157.153 91.6023 157.114 91.8326 157.114 92.1609C157.114 92.4892 157.153 92.722 157.231 92.8592C157.315 92.9915 157.43 93.0576 157.577 93.0576Z" fill="white"/>
</g>
</g>
<path d="M16.1083 16.5433C16.1083 16.8692 16.0226 17.1493 15.8511 17.3837C15.6796 17.6181 15.4509 17.7981 15.1651 17.9239C14.885 18.0497 14.5734 18.1125 14.2304 18.1125H11.3235V12.0243H14.4619C14.7478 12.0243 14.9936 12.1015 15.1994 12.2558C15.4052 12.4045 15.5652 12.5988 15.6796 12.8389C15.7939 13.079 15.8511 13.3248 15.8511 13.5764C15.8511 13.8736 15.7739 14.1538 15.6195 14.4167C15.4709 14.674 15.2565 14.8655 14.9764 14.9912C15.3194 15.0941 15.5938 15.2828 15.7996 15.5572C16.0054 15.8259 16.1083 16.1546 16.1083 16.5433ZM12.2839 12.8561V14.6482H14.0503C14.2904 14.6482 14.4905 14.5654 14.6506 14.3996C14.8106 14.2281 14.8907 14.0137 14.8907 13.7564C14.8907 13.4935 14.8164 13.2791 14.6677 13.1133C14.5191 12.9418 14.3304 12.8561 14.1018 12.8561H12.2839ZM15.1222 16.3632C15.1222 16.1117 15.0422 15.8916 14.8821 15.703C14.7277 15.5143 14.5305 15.42 14.2904 15.42H12.2839V17.2808H14.2304C14.4819 17.2808 14.6934 17.1922 14.8649 17.0149C15.0364 16.832 15.1222 16.6148 15.1222 16.3632ZM16.664 16.8006C16.664 16.5147 16.7441 16.2661 16.9041 16.0545C17.0642 15.8373 17.2871 15.6715 17.573 15.5572C17.8645 15.4371 18.1989 15.3771 18.5762 15.3771C18.7763 15.3771 18.9793 15.3943 19.1851 15.4286C19.3966 15.4572 19.5824 15.5 19.7424 15.5572V15.2742C19.7424 14.9598 19.6481 14.714 19.4595 14.5368C19.2708 14.3596 18.9993 14.2709 18.6448 14.2709C18.399 14.2709 18.1618 14.3138 17.9331 14.3996C17.7045 14.4853 17.4672 14.6111 17.2214 14.7769L16.9041 14.1423C17.2014 13.948 17.4987 13.8022 17.7959 13.705C18.0989 13.6021 18.4162 13.5506 18.7477 13.5506C19.348 13.5506 19.8196 13.7107 20.1626 14.0308C20.5113 14.3453 20.6857 14.794 20.6857 15.3771V17.0492C20.6857 17.1579 20.7028 17.235 20.7371 17.2808C20.7772 17.3265 20.8429 17.3522 20.9344 17.3579V18.1125C20.8486 18.1297 20.7714 18.1411 20.7028 18.1468C20.6342 18.1526 20.5771 18.1554 20.5313 18.1554C20.3255 18.1554 20.1712 18.1068 20.0683 18.0096C19.9711 17.9067 19.9139 17.7924 19.8968 17.6666L19.8711 17.4094C19.6767 17.6609 19.428 17.8553 19.125 17.9925C18.8221 18.1297 18.5162 18.1983 18.2075 18.1983C17.9103 18.1983 17.6444 18.1383 17.41 18.0182C17.1757 17.8925 16.9927 17.7238 16.8612 17.5123C16.7298 17.3008 16.664 17.0635 16.664 16.8006ZM19.5195 17.075C19.6681 16.9263 19.7424 16.7863 19.7424 16.6548V16.1403C19.4052 16.0145 19.0622 15.9516 18.7134 15.9516C18.3704 15.9516 18.0903 16.0231 17.8731 16.166C17.6616 16.3032 17.5558 16.489 17.5558 16.7234C17.5558 16.9178 17.633 17.0978 17.7873 17.2636C17.9474 17.4237 18.1761 17.5037 18.4733 17.5037C18.6734 17.5037 18.8678 17.4637 19.0564 17.3837C19.2451 17.3036 19.3994 17.2007 19.5195 17.075ZM21.8386 11.8528H22.7819V16.8177C22.7819 17.0464 22.8162 17.1922 22.8848 17.255C22.9534 17.3179 23.0391 17.3494 23.142 17.3494C23.2564 17.3494 23.365 17.3379 23.4679 17.3151C23.5708 17.2922 23.6565 17.2636 23.7251 17.2293L23.8623 17.9753C23.7251 18.0325 23.5622 18.0811 23.3736 18.1211C23.1849 18.1611 23.0163 18.1811 22.8676 18.1811C22.5475 18.1811 22.296 18.0925 22.113 17.9153C21.9301 17.7324 21.8386 17.4809 21.8386 17.1607V11.8528ZM24.0834 16.8006C24.0834 16.5147 24.1634 16.2661 24.3235 16.0545C24.4836 15.8373 24.7065 15.6715 24.9924 15.5572C25.2839 15.4371 25.6183 15.3771 25.9956 15.3771C26.1957 15.3771 26.3987 15.3943 26.6045 15.4286C26.816 15.4572 27.0018 15.5 27.1618 15.5572V15.2742C27.1618 14.9598 27.0675 14.714 26.8789 14.5368C26.6902 14.3596 26.4187 14.2709 26.0642 14.2709C25.8184 14.2709 25.5812 14.3138 25.3525 14.3996C25.1238 14.4853 24.8866 14.6111 24.6408 14.7769L24.3235 14.1423C24.6208 13.948 24.918 13.8022 25.2153 13.705C25.5183 13.6021 25.8356 13.5506 26.1671 13.5506C26.7674 13.5506 27.239 13.7107 27.582 14.0308C27.9307 14.3453 28.1051 14.794 28.1051 15.3771V17.0492C28.1051 17.1579 28.1222 17.235 28.1565 17.2808C28.1966 17.3265 28.2623 17.3522 28.3538 17.3579V18.1125C28.268 18.1297 28.1908 18.1411 28.1222 18.1468C28.0536 18.1526 27.9965 18.1554 27.9507 18.1554C27.7449 18.1554 27.5906 18.1068 27.4877 18.0096C27.3905 17.9067 27.3333 17.7924 27.3162 17.6666L27.2905 17.4094C27.0961 17.6609 26.8474 17.8553 26.5444 17.9925C26.2415 18.1297 25.9356 18.1983 25.6269 18.1983C25.3296 18.1983 25.0638 18.1383 24.8294 18.0182C24.5951 17.8925 24.4121 17.7238 24.2806 17.5123C24.1492 17.3008 24.0834 17.0635 24.0834 16.8006ZM26.9389 17.075C27.0875 16.9263 27.1618 16.7863 27.1618 16.6548V16.1403C26.8246 16.0145 26.4816 15.9516 26.1328 15.9516C25.7898 15.9516 25.5097 16.0231 25.2925 16.166C25.081 16.3032 24.9752 16.489 24.9752 16.7234C24.9752 16.9178 25.0524 17.0978 25.2067 17.2636C25.3668 17.4237 25.5955 17.5037 25.8927 17.5037C26.0928 17.5037 26.2872 17.4637 26.4758 17.3837C26.6645 17.3036 26.8188 17.2007 26.9389 17.075ZM33.2711 18.1125H32.3279V15.6001C32.3279 15.177 32.2593 14.8712 32.1221 14.6825C31.9906 14.4882 31.7934 14.391 31.5304 14.391C31.3475 14.391 31.1645 14.4367 30.9816 14.5282C30.8044 14.6197 30.6443 14.7454 30.5014 14.9055C30.3585 15.0656 30.2556 15.2456 30.1927 15.4457V18.1125H29.2494V13.6278H30.1069V14.5282C30.2784 14.2309 30.5271 13.9937 30.853 13.8165C31.1788 13.6393 31.539 13.5506 31.9334 13.5506C32.2879 13.5506 32.5623 13.6364 32.7566 13.8079C32.951 13.9737 33.0853 14.1938 33.1596 14.4682C33.234 14.7426 33.2711 15.0456 33.2711 15.3771V18.1125ZM36.3982 18.1983C35.9352 18.1983 35.5293 18.0925 35.1806 17.881C34.8319 17.6638 34.5603 17.378 34.366 17.0235C34.1716 16.6691 34.0744 16.2832 34.0744 15.8659C34.0744 15.4486 34.1687 15.0656 34.3574 14.7168C34.5518 14.3624 34.8204 14.0794 35.1634 13.8679C35.5122 13.6564 35.9238 13.5506 36.3982 13.5506C36.8613 13.5506 37.2586 13.6535 37.5902 13.8593C37.9275 14.0594 38.179 14.3281 38.3448 14.6654L37.4272 14.9569C37.3243 14.7683 37.1786 14.6225 36.9899 14.5196C36.807 14.411 36.604 14.3567 36.3811 14.3567C36.1296 14.3567 35.9009 14.4224 35.6951 14.5539C35.495 14.6797 35.3349 14.8569 35.2149 15.0856C35.1006 15.3142 35.0434 15.5743 35.0434 15.8659C35.0434 16.1574 35.1034 16.4176 35.2235 16.6462C35.3492 16.8749 35.5122 17.0578 35.7122 17.195C35.918 17.3265 36.1439 17.3922 36.3897 17.3922C36.6183 17.3922 36.8356 17.3322 37.0414 17.2122C37.2472 17.0921 37.3844 16.9463 37.453 16.7748L38.3791 17.0492C38.2304 17.3865 37.9818 17.6638 37.633 17.881C37.2843 18.0925 36.8727 18.1983 36.3982 18.1983ZM41.1463 18.1983C40.6833 18.1983 40.2774 18.0925 39.9287 17.881C39.58 17.6695 39.3084 17.3894 39.114 17.0407C38.9197 16.6862 38.8225 16.3004 38.8225 15.883C38.8225 15.46 38.9197 15.0713 39.114 14.7168C39.3084 14.3624 39.58 14.0794 39.9287 13.8679C40.2774 13.6564 40.6861 13.5506 41.1549 13.5506C41.6237 13.5506 42.0295 13.6593 42.3725 13.8765C42.7155 14.088 42.9785 14.3681 43.1614 14.7168C43.3501 15.0656 43.4444 15.44 43.4444 15.8402C43.4444 15.9831 43.4358 16.0974 43.4187 16.1832H39.8258C39.8429 16.4461 39.9144 16.6777 40.0401 16.8777C40.1716 17.0721 40.3346 17.2265 40.5289 17.3408C40.729 17.4494 40.9462 17.5037 41.1806 17.5037C41.4322 17.5037 41.6694 17.4408 41.8923 17.3151C42.1153 17.1893 42.2696 17.0235 42.3554 16.8177L43.1614 17.0492C43.0071 17.3865 42.7498 17.6638 42.3897 17.881C42.0353 18.0925 41.6208 18.1983 41.1463 18.1983ZM39.8 15.5572H42.5097C42.4869 15.2999 42.4126 15.0741 42.2868 14.8798C42.161 14.6797 41.9981 14.5253 41.798 14.4167C41.6037 14.3024 41.3864 14.2452 41.1463 14.2452C40.9119 14.2452 40.6947 14.3024 40.4946 14.4167C40.3003 14.5253 40.1402 14.6797 40.0144 14.8798C39.8887 15.0741 39.8172 15.2999 39.8 15.5572Z" fill="white"/>
<path d="M16.4427 76.3V71.9611L14.6506 75.2539H14.0846L12.2839 71.9611V76.3H11.3235V70.2118H12.3525L14.3676 73.9333L16.3827 70.2118H17.4117V76.3H16.4427ZM20.6044 76.3858C20.1357 76.3858 19.7269 76.28 19.3782 76.0685C19.0352 75.8513 18.7694 75.5683 18.5807 75.2196C18.3921 74.8652 18.2978 74.4793 18.2978 74.062C18.2978 73.6447 18.3921 73.2616 18.5807 72.9129C18.7751 72.5585 19.0438 72.2755 19.3868 72.064C19.7355 71.8468 20.1414 71.7381 20.6044 71.7381C21.0675 71.7381 21.4705 71.8468 21.8135 72.064C22.1622 72.2755 22.4309 72.5585 22.6196 72.9129C22.8139 73.2616 22.9111 73.6447 22.9111 74.062C22.9111 74.4793 22.8168 74.8652 22.6281 75.2196C22.4395 75.5683 22.1708 75.8513 21.8221 76.0685C21.4791 76.28 21.0732 76.3858 20.6044 76.3858ZM19.2667 74.0705C19.2667 74.3564 19.3268 74.6136 19.4468 74.8423C19.5669 75.071 19.7269 75.251 19.927 75.3825C20.1271 75.514 20.3529 75.5797 20.6044 75.5797C20.8503 75.5797 21.0732 75.514 21.2733 75.3825C21.4791 75.2453 21.642 75.0624 21.7621 74.8337C21.8821 74.6051 21.9421 74.3478 21.9421 74.062C21.9421 73.7761 21.8821 73.5189 21.7621 73.2902C21.642 73.0616 21.4791 72.8815 21.2733 72.75C21.0732 72.6128 20.8503 72.5442 20.6044 72.5442C20.3586 72.5442 20.1328 72.6128 19.927 72.75C19.7269 72.8815 19.5669 73.0644 19.4468 73.2988C19.3268 73.5275 19.2667 73.7847 19.2667 74.0705ZM27.7694 76.3H26.8261V73.7876C26.8261 73.3645 26.7575 73.0587 26.6203 72.87C26.4889 72.6757 26.2916 72.5785 26.0287 72.5785C25.8457 72.5785 25.6628 72.6242 25.4799 72.7157C25.3026 72.8072 25.1426 72.9329 24.9997 73.093C24.8567 73.2531 24.7538 73.4331 24.691 73.6332V76.3H23.7477V71.8153H24.6052V72.7157C24.7767 72.4184 25.0254 72.1812 25.3512 72.004C25.6771 71.8268 26.0372 71.7381 26.4317 71.7381C26.7861 71.7381 27.0605 71.8239 27.2549 71.9954C27.4493 72.1612 27.5836 72.3813 27.6579 72.6557C27.7322 72.9301 27.7694 73.2331 27.7694 73.5646V76.3ZM31.3261 76.0685C31.206 76.1257 31.0402 76.1914 30.8287 76.2657C30.6172 76.3343 30.3914 76.3686 30.1513 76.3686C29.854 76.3686 29.5968 76.2886 29.3795 76.1285C29.168 75.9685 29.0623 75.7084 29.0623 75.3482V72.5442H28.4706V71.8153H29.0623V70.3404H30.0055V71.8153H30.9831V72.5442H30.0055V75.0481C30.017 75.2082 30.0655 75.3254 30.1513 75.3997C30.2428 75.4683 30.3542 75.5026 30.4857 75.5026C30.6172 75.5026 30.743 75.4797 30.863 75.434C30.9831 75.3882 31.0717 75.3511 31.1288 75.3225L31.3261 76.0685ZM36.0011 76.3H35.0578V73.7876C35.0578 73.3817 34.9835 73.0787 34.8349 72.8786C34.6862 72.6785 34.4776 72.5785 34.2089 72.5785C34.0374 72.5785 33.863 72.6242 33.6858 72.7157C33.5143 72.8072 33.36 72.9329 33.2228 73.093C33.0856 73.2473 32.9855 73.4274 32.9226 73.6332V76.3H31.9794V70.0403H32.9226V72.7157C33.0941 72.407 33.3285 72.1669 33.6258 71.9954C33.923 71.8239 34.2432 71.7381 34.5862 71.7381C34.9578 71.7381 35.2465 71.8239 35.4523 71.9954C35.6581 72.1612 35.801 72.3841 35.881 72.6642C35.961 72.9386 36.0011 73.2388 36.0011 73.5646V76.3ZM37.1045 70.0403H38.0477V75.0052C38.0477 75.2339 38.082 75.3797 38.1506 75.4425C38.2192 75.5054 38.305 75.5369 38.4079 75.5369C38.5222 75.5369 38.6308 75.5254 38.7337 75.5026C38.8366 75.4797 38.9224 75.4511 38.991 75.4168L39.1282 76.1628C38.991 76.22 38.8281 76.2686 38.6394 76.3086C38.4508 76.3486 38.2821 76.3686 38.1335 76.3686C37.8133 76.3686 37.5618 76.28 37.3789 76.1028C37.1959 75.9199 37.1045 75.6684 37.1045 75.3482V70.0403ZM39.6368 77.3548C39.7226 77.3719 39.8055 77.3862 39.8855 77.3976C39.9713 77.4091 40.0399 77.4148 40.0913 77.4148C40.1885 77.4148 40.2714 77.3834 40.34 77.3205C40.4143 77.2633 40.4886 77.1547 40.5629 76.9946C40.6373 76.8346 40.7287 76.603 40.8373 76.3L38.9937 71.8153H39.9798L41.3518 75.3396L42.5695 71.8153H43.4784L41.4462 77.3376C41.3547 77.5892 41.1946 77.8035 40.966 77.9807C40.743 78.158 40.4543 78.2466 40.0999 78.2466C40.0313 78.2466 39.9598 78.2409 39.8855 78.2294C39.8112 78.218 39.7283 78.2008 39.6368 78.178V77.3548ZM46.1845 76.3V70.2118H48.7399C49.0143 70.2118 49.2658 70.269 49.4945 70.3833C49.7289 70.4976 49.9289 70.6491 50.0947 70.8378C50.2662 71.0264 50.3977 71.2379 50.4892 71.4723C50.5806 71.7067 50.6264 71.9468 50.6264 72.1926C50.6264 72.5356 50.5492 72.8586 50.3949 73.1616C50.2405 73.4646 50.0261 73.7104 49.7517 73.899C49.4773 74.0877 49.1572 74.182 48.7913 74.182H47.1449V76.3H46.1845ZM47.1449 73.3331H48.7313C49 73.3331 49.2201 73.2245 49.3916 73.0072C49.5631 72.79 49.6488 72.5185 49.6488 72.1926C49.6488 71.9697 49.6031 71.7753 49.5116 71.6095C49.4202 71.438 49.3001 71.3037 49.1515 71.2065C49.0086 71.1093 48.8514 71.0607 48.6799 71.0607H47.1449V73.3331ZM53.9282 72.6299C53.5623 72.6414 53.2364 72.7271 52.9506 72.8872C52.6705 73.0415 52.4704 73.2645 52.3504 73.556V76.3H51.4071V71.8153H52.2818V72.8186C52.4361 72.5099 52.6391 72.2641 52.8906 72.0811C53.1421 71.8925 53.4079 71.7896 53.6881 71.7724C53.7395 71.7724 53.7852 71.7724 53.8253 71.7724C53.8653 71.7724 53.8996 71.7753 53.9282 71.781V72.6299ZM56.5541 76.3858C56.0854 76.3858 55.6766 76.28 55.3279 76.0685C54.9849 75.8513 54.7191 75.5683 54.5304 75.2196C54.3418 74.8652 54.2474 74.4793 54.2474 74.062C54.2474 73.6447 54.3418 73.2616 54.5304 72.9129C54.7248 72.5585 54.9935 72.2755 55.3365 72.064C55.6852 71.8468 56.0911 71.7381 56.5541 71.7381C57.0172 71.7381 57.4202 71.8468 57.7632 72.064C58.1119 72.2755 58.3806 72.5585 58.5692 72.9129C58.7636 73.2616 58.8608 73.6447 58.8608 74.062C58.8608 74.4793 58.7665 74.8652 58.5778 75.2196C58.3892 75.5683 58.1205 75.8513 57.7718 76.0685C57.4288 76.28 57.0229 76.3858 56.5541 76.3858ZM55.2164 74.0705C55.2164 74.3564 55.2764 74.6136 55.3965 74.8423C55.5165 75.071 55.6766 75.251 55.8767 75.3825C56.0768 75.514 56.3026 75.5797 56.5541 75.5797C56.7999 75.5797 57.0229 75.514 57.223 75.3825C57.4288 75.2453 57.5917 75.0624 57.7117 74.8337C57.8318 74.6051 57.8918 74.3478 57.8918 74.062C57.8918 73.7761 57.8318 73.5189 57.7117 73.2902C57.5917 73.0616 57.4288 72.8815 57.223 72.75C57.0229 72.6128 56.7999 72.5442 56.5541 72.5442C56.3083 72.5442 56.0825 72.6128 55.8767 72.75C55.6766 72.8815 55.5165 73.0644 55.3965 73.2988C55.2764 73.5275 55.2164 73.7847 55.2164 74.0705ZM59.896 72.6557H59.2958V71.9268H59.896V71.7467C59.896 71.438 59.9618 71.1465 60.0933 70.8721C60.2247 70.5977 60.4191 70.3776 60.6764 70.2118C60.9393 70.0403 61.2595 69.9545 61.6368 69.9545C61.9569 69.9545 62.2427 70.006 62.4943 70.1089C62.7515 70.2118 62.9745 70.3261 63.1631 70.4519L62.7772 71.155C62.6457 71.0407 62.4828 70.9464 62.2885 70.8721C62.0998 70.7978 61.9026 70.7606 61.6968 70.7606C61.4967 70.7606 61.3338 70.8063 61.208 70.8978C61.0822 70.9893 60.9879 71.1093 60.925 71.2579C60.8679 71.4066 60.8393 71.5609 60.8393 71.721V71.9268H63.1888V76.3H62.2456V72.6557H60.8393V76.3H59.896V72.6557ZM66.8152 76.0685C66.6951 76.1257 66.5293 76.1914 66.3178 76.2657C66.1063 76.3343 65.8805 76.3686 65.6404 76.3686C65.3431 76.3686 65.0859 76.2886 64.8687 76.1285C64.6571 75.9685 64.5514 75.7084 64.5514 75.3482V72.5442H63.9597V71.8153H64.5514V70.3404H65.4946V71.8153H66.4722V72.5442H65.4946V75.0481C65.5061 75.2082 65.5547 75.3254 65.6404 75.3997C65.7319 75.4683 65.8433 75.5026 65.9748 75.5026C66.1063 75.5026 66.2321 75.4797 66.3521 75.434C66.4722 75.3882 66.5608 75.3511 66.618 75.3225L66.8152 76.0685Z" fill="white"/>
<path d="M23.3824 44.6981C23.3824 45.8888 22.9708 46.9031 22.1476 47.741C21.3244 48.5642 20.2145 49.0934 18.818 49.3286V51.8203H16.1279V49.4168C14.0993 49.2257 12.475 48.6524 11.2549 47.6969L12.3794 45.2273C13.5848 46.1093 14.9152 46.6165 16.3705 46.7488V42.7798C15.3709 42.5152 14.533 42.2285 13.8568 41.9198C13.1806 41.6111 12.6073 41.1628 12.1369 40.5748C11.6812 39.9721 11.4533 39.1783 11.4533 38.1934C11.4533 37.0027 11.8796 35.981 12.7322 35.1284C13.5995 34.2611 14.7314 33.7099 16.1279 33.4747V31.0051H18.818V33.4526C19.6559 33.5702 20.4497 33.776 21.1994 34.07C21.9491 34.3493 22.5592 34.7021 23.0296 35.1284L21.905 37.598C20.8466 36.8336 19.7441 36.3485 18.5975 36.1427V40.244C19.5677 40.4792 20.3836 40.7512 21.0451 41.0599C21.7066 41.3539 22.2578 41.7949 22.6988 42.3829C23.1545 42.9709 23.3824 43.7426 23.3824 44.6981ZM14.8931 37.9729C14.8931 38.3698 15.0181 38.7005 15.268 38.9651C15.5326 39.215 15.9001 39.4282 16.3705 39.6046V36.2089C15.9001 36.3412 15.5326 36.5617 15.268 36.8704C15.0181 37.1644 14.8931 37.5319 14.8931 37.9729ZM18.5975 46.5724C19.4942 46.3078 19.9426 45.7345 19.9426 44.8525C19.9426 44.5144 19.825 44.2351 19.5898 44.0146C19.3693 43.7794 19.0385 43.5736 18.5975 43.3972V46.5724ZM31.422 39.0974C32.3922 39.0974 33.2522 39.3106 34.0019 39.7369C34.7663 40.1485 35.3543 40.7365 35.7659 41.5009C36.1922 42.2653 36.4053 43.1473 36.4053 44.1469C36.4053 45.2053 36.1554 46.1387 35.6556 46.9472C35.1705 47.741 34.4649 48.3584 33.5388 48.7994C32.6274 49.2257 31.5617 49.4389 30.3416 49.4389C29.342 49.4389 28.3497 49.2772 27.3648 48.9538C26.3946 48.6304 25.6082 48.2041 25.0055 47.6749L26.108 45.2053C27.5045 46.2196 28.9304 46.7267 30.3857 46.7267C32.2232 46.7267 33.1419 45.9109 33.1419 44.2792C33.1419 43.5001 32.8994 42.89 32.4143 42.449C31.9439 41.9933 31.2971 41.7655 30.4739 41.7655C29.9594 41.7655 29.4375 41.861 28.9083 42.0521C28.3938 42.2432 27.9308 42.5078 27.5192 42.8459H25.5567V33.5629H35.6336V36.2089H28.9083V39.7148C29.5992 39.3032 30.4371 39.0974 31.422 39.0974ZM49.2959 46.5062V49.2625H38.5135V46.7267L43.7393 41.1701C44.8271 39.9941 45.371 38.921 45.371 37.9508C45.371 37.3334 45.1873 36.8704 44.8198 36.5617C44.467 36.2383 43.9451 36.0766 43.2542 36.0766C41.9165 36.0766 40.5274 36.5837 39.0868 37.598L37.9843 35.1284C38.6164 34.5845 39.4249 34.1582 40.4098 33.8495C41.3947 33.5261 42.3943 33.3644 43.4086 33.3644C45.0403 33.3644 46.3339 33.7613 47.2894 34.5551C48.2596 35.3342 48.7447 36.3853 48.7447 37.7083C48.7447 38.6197 48.5536 39.4649 48.1714 40.244C47.8039 41.0084 47.1791 41.861 46.2971 42.8018L42.7471 46.5062H49.2959ZM62.8255 46.5062V49.2625H52.5943V46.5062H55.99V37.3996L52.8148 39.2738V36.253L57.4233 33.5629H59.4298V46.5062H62.8255ZM68.2192 45.7124V47.9836C68.2192 48.8509 68.0648 49.63 67.7561 50.3209C67.4621 51.0265 66.955 51.7321 66.2347 52.4377L64.9337 51.4234C65.654 50.6737 66.1024 49.9534 66.2788 49.2625H64.625V45.7124H68.2192ZM77.077 39.0533C77.9884 39.0533 78.8043 39.2738 79.5246 39.7148C80.2596 40.1411 80.8255 40.7438 81.2224 41.5229C81.634 42.2873 81.8398 43.162 81.8398 44.1469C81.8398 45.1612 81.6046 46.0726 81.1342 46.8811C80.6785 47.6896 80.0391 48.3217 79.2159 48.7774C78.4074 49.2331 77.4886 49.4609 76.4596 49.4609C74.4163 49.4609 72.8434 48.7847 71.7409 47.4323C70.6384 46.0799 70.0872 44.1542 70.0872 41.6552C70.0872 39.9353 70.3518 38.458 70.881 37.2232C71.4102 35.9737 72.1672 35.0182 73.1521 34.3567C74.137 33.6952 75.313 33.3644 76.6801 33.3644C77.6503 33.3644 78.5911 33.5188 79.5025 33.8275C80.4139 34.1362 81.193 34.5698 81.8398 35.1284L80.7153 37.598C79.3923 36.5837 78.0987 36.0766 76.8345 36.0766C75.8055 36.0766 75.0043 36.4955 74.431 37.3334C73.8577 38.1566 73.5417 39.3694 73.4829 40.9717C73.821 40.3837 74.3061 39.9206 74.9382 39.5825C75.585 39.2297 76.2979 39.0533 77.077 39.0533ZM76.2612 46.7708C76.9668 46.7708 77.5254 46.543 77.937 46.0873C78.3633 45.6316 78.5764 45.0289 78.5764 44.2792C78.5764 43.5001 78.3706 42.89 77.959 42.449C77.5474 41.9933 76.9815 41.7655 76.2612 41.7655C75.5556 41.7655 74.9823 42.0007 74.5413 42.4711C74.115 42.9268 73.9018 43.5295 73.9018 44.2792C73.9018 45.0142 74.1223 45.6169 74.5633 46.0873C75.0043 46.543 75.5703 46.7708 76.2612 46.7708ZM90.1 39.0974C91.0702 39.0974 91.9301 39.3106 92.6798 39.7369C93.4442 40.1485 94.0322 40.7365 94.4438 41.5009C94.8701 42.2653 95.0833 43.1473 95.0833 44.1469C95.0833 45.2053 94.8334 46.1387 94.3336 46.9472C93.8485 47.741 93.1429 48.3584 92.2168 48.7994C91.3054 49.2257 90.2396 49.4389 89.0195 49.4389C88.0199 49.4389 87.0277 49.2772 86.0428 48.9538C85.0726 48.6304 84.2861 48.2041 83.6834 47.6749L84.7859 45.2053C86.1824 46.2196 87.6083 46.7267 89.0636 46.7267C90.9011 46.7267 91.8199 45.9109 91.8199 44.2792C91.8199 43.5001 91.5773 42.89 91.0922 42.449C90.6218 41.9933 89.975 41.7655 89.1518 41.7655C88.6373 41.7655 88.1155 41.861 87.5863 42.0521C87.0718 42.2432 86.6087 42.5078 86.1971 42.8459H84.2347V33.5629H94.3115V36.2089H87.5863V39.7148C88.2772 39.3032 89.1151 39.0974 90.1 39.0974ZM107.974 46.5062V49.2625H97.1915V46.7267L102.417 41.1701C103.505 39.9941 104.049 38.921 104.049 37.9508C104.049 37.3334 103.865 36.8704 103.498 36.5617C103.145 36.2383 102.623 36.0766 101.932 36.0766C100.595 36.0766 99.2054 36.5837 97.7648 37.598L96.6623 35.1284C97.2944 34.5845 98.1029 34.1582 99.0878 33.8495C100.073 33.5261 101.072 33.3644 102.087 33.3644C103.718 33.3644 105.012 33.7613 105.967 34.5551C106.938 35.3342 107.423 36.3853 107.423 37.7083C107.423 38.6197 107.232 39.4649 106.849 40.244C106.482 41.0084 105.857 41.861 104.975 42.8018L101.425 46.5062H107.974Z" fill="white"/>
<path d="M14.5918 97.2404V95.3441L14.8858 95.6234C14.4154 95.6136 13.9597 95.5646 13.5187 95.4764C13.0777 95.3882 12.6612 95.2559 12.2692 95.0795C11.887 94.9031 11.5391 94.6826 11.2255 94.418L11.7253 93.2126C12.1957 93.585 12.6955 93.8643 13.2247 94.0505C13.7637 94.2367 14.3713 94.3298 15.0475 94.3298C15.8413 94.3298 16.4244 94.1828 16.7968 93.8888C17.179 93.585 17.3701 93.2028 17.3701 92.7422C17.3701 92.36 17.2329 92.0562 16.9585 91.8308C16.6939 91.6054 16.2431 91.4241 15.6061 91.2869L14.092 90.9635C13.4942 90.8263 12.9993 90.6401 12.6073 90.4049C12.2153 90.1599 11.9213 89.8561 11.7253 89.4935C11.5391 89.1211 11.446 88.6899 11.446 88.1999C11.446 87.6217 11.5832 87.1072 11.8576 86.6564C12.1418 86.2056 12.5338 85.8479 13.0336 85.5833C13.5432 85.3187 14.1361 85.1668 14.8123 85.1276L14.5918 85.3334V83.4959H15.7972V85.3334L15.5473 85.1276C16.0961 85.1472 16.64 85.2599 17.179 85.4657C17.718 85.6617 18.1737 85.9557 18.5461 86.3477L18.061 87.509C17.6788 87.1366 17.2476 86.8622 16.7674 86.6858C16.2872 86.4996 15.758 86.4065 15.1798 86.4065C14.4742 86.4065 13.9156 86.5682 13.504 86.8916C13.1022 87.215 12.9013 87.6364 12.9013 88.1558C12.9013 88.5478 13.0287 88.8663 13.2835 89.1113C13.5383 89.3563 13.9597 89.5425 14.5477 89.6699L16.0618 89.9933C17.0026 90.1893 17.7033 90.5029 18.1639 90.9341C18.6245 91.3653 18.8548 91.9386 18.8548 92.654C18.8548 93.2126 18.7127 93.7075 18.4285 94.1387C18.1443 94.5601 17.7523 94.8982 17.2525 95.153C16.7625 95.398 16.1941 95.5499 15.5473 95.6087L15.7972 95.3294V97.2404H14.5918ZM21.2157 95.5499V94.271H23.6265V86.48H24.3909L21.4509 88.2734V86.8034L24.0528 85.1864H25.1553V94.271H27.4191V95.5499H21.2157ZM33.7344 95.5499V93.4037H28.9422V92.3159L33.9843 85.1864H35.2191V92.213H36.7626V93.4037H35.2191V95.5499H33.7344ZM33.7344 92.213V86.9945H34.0725L30.1329 92.5805V92.213H33.7344ZM38.6972 97.358L38.0504 96.8582C38.3346 96.5544 38.5257 96.2751 38.6237 96.0203C38.7315 95.7655 38.7854 95.5009 38.7854 95.2265L39.1088 95.5499H37.9475V93.8006H39.6968V94.9913C39.6968 95.2853 39.6625 95.5646 39.5939 95.8292C39.5351 96.0938 39.4322 96.3486 39.2852 96.5936C39.148 96.8484 38.952 97.1032 38.6972 97.358ZM41.7887 95.5499V94.418L45.3461 90.6989C45.8067 90.2187 46.1497 89.7679 46.3751 89.3465C46.6005 88.9251 46.7132 88.489 46.7132 88.0382C46.7132 87.4796 46.5368 87.0582 46.184 86.774C45.841 86.4898 45.3412 86.3477 44.6846 86.3477C44.1652 86.3477 43.6752 86.4408 43.2146 86.627C42.7638 86.8132 42.3277 87.0974 41.9063 87.4796L41.3771 86.3183C41.7887 85.9361 42.2983 85.6323 42.9059 85.4069C43.5233 85.1717 44.175 85.0541 44.861 85.0541C45.5764 85.0541 46.184 85.1668 46.6838 85.3922C47.1836 85.6078 47.5658 85.9263 47.8304 86.3477C48.095 86.7691 48.2273 87.2836 48.2273 87.8912C48.2273 88.538 48.0705 89.1603 47.7569 89.7581C47.4433 90.3461 46.9729 90.9537 46.3457 91.5809L43.2734 94.6826V94.271H48.6536V95.5499H41.7887ZM50.603 95.5499V94.418L54.1604 90.6989C54.621 90.2187 54.964 89.7679 55.1894 89.3465C55.4148 88.9251 55.5275 88.489 55.5275 88.0382C55.5275 87.4796 55.3511 87.0582 54.9983 86.774C54.6553 86.4898 54.1555 86.3477 53.4989 86.3477C52.9795 86.3477 52.4895 86.4408 52.0289 86.627C51.5781 86.8132 51.142 87.0974 50.7206 87.4796L50.1914 86.3183C50.603 85.9361 51.1126 85.6323 51.7202 85.4069C52.3376 85.1717 52.9893 85.0541 53.6753 85.0541C54.3907 85.0541 54.9983 85.1668 55.4981 85.3922C55.9979 85.6078 56.3801 85.9263 56.6447 86.3477C56.9093 86.7691 57.0416 87.2836 57.0416 87.8912C57.0416 88.538 56.8848 89.1603 56.5712 89.7581C56.2576 90.3461 55.7872 90.9537 55.16 91.5809L52.0877 94.6826V94.271H57.4679V95.5499H50.603ZM62.7541 95.6822C62.3033 95.6822 61.8574 95.6332 61.4164 95.5352C60.9754 95.4372 60.5638 95.3 60.1816 95.1236C59.7994 94.9374 59.4662 94.7169 59.182 94.4621L59.7112 93.3008C60.1816 93.6634 60.6618 93.9378 61.1518 94.124C61.6516 94.3004 62.1759 94.3886 62.7247 94.3886C63.4205 94.3886 63.9644 94.2073 64.3564 93.8447C64.7582 93.4821 64.9591 92.997 64.9591 92.3894C64.9591 91.7622 64.768 91.2575 64.3858 90.8753C64.0134 90.4833 63.494 90.2873 62.8276 90.2873C62.367 90.2873 61.9456 90.3804 61.5634 90.5666C61.191 90.7528 60.8627 91.037 60.5785 91.4192H59.5201V85.1864H65.797V86.4653H60.9754V90.1991H60.5932C60.8578 89.8267 61.2106 89.5376 61.6516 89.3318C62.1024 89.126 62.6071 89.0231 63.1657 89.0231C63.8321 89.0231 64.4103 89.1603 64.9003 89.4347C65.3903 89.7091 65.7676 90.0913 66.0322 90.5813C66.3066 91.0713 66.4438 91.6495 66.4438 92.3159C66.4438 92.9823 66.2919 93.5703 65.9881 94.0799C65.6941 94.5797 65.2678 94.9717 64.7092 95.2559C64.1604 95.5401 63.5087 95.6822 62.7541 95.6822Z" fill="white"/>
<defs>
<filter id="filter0_b_1_184" x="-12.025" y="-58.4875" width="322.175" height="299.513" filterUnits="userSpaceOnUse" color-interpolation-filters="sRGB">
<feFlood flood-opacity="0" result="BackgroundImageFix"/>
<feGaussianBlur in="BackgroundImageFix" stdDeviation="71.05"/>
<feComposite in2="SourceAlpha" operator="in" result="effect1_backgroundBlur_1_184"/>
<feBlend mode="normal" in="SourceGraphic" in2="effect1_backgroundBlur_1_184" result="shape"/>
</filter>
<linearGradient id="paint0_linear_1_184" x1="0.837586" y1="121.894" x2="187.344" y2="0.312483" gradientUnits="userSpaceOnUse">
<stop stop-color="#7942FB"/>
<stop offset="1" stop-color="#B091F9"/>
</linearGradient>
<linearGradient id="paint1_linear_1_184" x1="0.837586" y1="121.894" x2="187.344" y2="0.312483" gradientUnits="userSpaceOnUse">
<stop stop-color="#7942FB"/>
<stop offset="1" stop-color="#B091F9"/>
</linearGradient>
<linearGradient id="paint2_linear_1_184" x1="6.34999" y1="60.9501" x2="6.34999" y2="135.675" gradientUnits="userSpaceOnUse">
<stop stop-color="white" stop-opacity="0.28"/>
<stop offset="1" stop-color="white" stop-opacity="0"/>
</linearGradient>
<linearGradient id="paint3_linear_1_184" x1="157.025" y1="-21.7374" x2="157.025" y2="52.9876" gradientUnits="userSpaceOnUse">
<stop stop-color="white" stop-opacity="0.28"/>
<stop offset="1" stop-color="white" stop-opacity="0"/>
</linearGradient>
</defs>
</svg>
