<svg width="15" height="16" viewBox="0 0 15 16" fill="none" xmlns="http://www.w3.org/2000/svg">
<g clip-path="url(#clip0_1_52)">
<path d="M3.82516 6.79993C3.15141 6.79993 2.60016 7.35118 2.60016 8.02493C2.60016 8.69868 3.15141 9.24993 3.82516 9.24993C4.49891 9.24993 5.05016 8.69868 5.05016 8.02493C5.05016 7.35118 4.49891 6.79993 3.82516 6.79993ZM11.1752 6.79993C10.5014 6.79993 9.95016 7.35118 9.95016 8.02493C9.95016 8.69868 10.5014 9.24993 11.1752 9.24993C11.8489 9.24993 12.4002 8.69868 12.4002 8.02493C12.4002 7.35118 11.8489 6.79993 11.1752 6.79993ZM7.50016 6.79993C6.82641 6.79993 6.27516 7.35118 6.27516 8.02493C6.27516 8.69868 6.82641 9.24993 7.50016 9.24993C8.17391 9.24993 8.72516 8.69868 8.72516 8.02493C8.72516 7.35118 8.17391 6.79993 7.50016 6.79993Z" fill="#393939"/>
</g>
<defs>
<clipPath id="clip0_1_52">
<rect width="14.7" height="14.7" fill="white" transform="translate(0.149963 0.675049)"/>
</clipPath>
</defs>
</svg>
