<svg width="67" height="67" viewBox="0 0 67 67" fill="none" xmlns="http://www.w3.org/2000/svg">
<g filter="url(#filter0_d_1_63)">
<rect x="16.45" y="14.075" width="29.4" height="29.4" rx="2.45" fill="#FBB142"/>
</g>
<g clip-path="url(#clip0_1_63)">
<path d="M31.1498 34.9C27.767 34.9 25.0248 32.1579 25.0248 28.775C25.0248 25.3922 27.767 22.65 31.1498 22.65C34.5326 22.65 37.2748 25.3922 37.2748 28.775C37.2748 32.1579 34.5326 34.9 31.1498 34.9ZM31.1498 33.675C32.4494 33.675 33.6957 33.1588 34.6146 32.2398C35.5336 31.3209 36.0498 30.0746 36.0498 28.775C36.0498 27.4755 35.5336 26.2291 34.6146 25.3102C33.6957 24.3913 32.4494 23.875 31.1498 23.875C29.8503 23.875 28.6039 24.3913 27.685 25.3102C26.7661 26.2291 26.2498 27.4755 26.2498 28.775C26.2498 30.0746 26.7661 31.3209 27.685 32.2398C28.6039 33.1588 29.8503 33.675 31.1498 33.675ZM31.1498 25.7431L34.1817 28.775L31.1498 31.8069L28.1179 28.775L31.1498 25.7431ZM31.1498 27.4759L29.8507 28.775L31.1498 30.0741L32.4489 28.775L31.1498 27.4759Z" fill="white"/>
</g>
<defs>
<filter id="filter0_d_1_63" x="0.524997" y="0.599951" width="66.15" height="66.15" filterUnits="userSpaceOnUse" color-interpolation-filters="sRGB">
<feFlood flood-opacity="0" result="BackgroundImageFix"/>
<feColorMatrix in="SourceAlpha" type="matrix" values="0 0 0 0 0 0 0 0 0 0 0 0 0 0 0 0 0 0 127 0" result="hardAlpha"/>
<feOffset dx="2.45" dy="4.9"/>
<feGaussianBlur stdDeviation="9.1875"/>
<feComposite in2="hardAlpha" operator="out"/>
<feColorMatrix type="matrix" values="0 0 0 0 0.984314 0 0 0 0 0.694118 0 0 0 0 0.258824 0 0 0 0.35 0"/>
<feBlend mode="normal" in2="BackgroundImageFix" result="effect1_dropShadow_1_63"/>
<feBlend mode="normal" in="SourceGraphic" in2="effect1_dropShadow_1_63" result="shape"/>
</filter>
<clipPath id="clip0_1_63">
<rect width="14.7" height="14.7" fill="white" transform="translate(23.7999 21.4249)"/>
</clipPath>
</defs>
</svg>
