<svg width="129" height="67" viewBox="0 0 129 67" fill="none" xmlns="http://www.w3.org/2000/svg">
<path d="M58.062 21.5889V22.2749H53.9288V16.1867H57.9848V16.8727H54.7006V18.8449H57.5561V19.488H54.7006V21.5889H58.062ZM59.3351 17.7988L60.5184 19.4452L60.587 19.5824L60.6642 19.4452L61.839 17.7988H62.6793L61.0244 20.0454L62.6879 22.2749H61.8476L60.6642 20.6371L60.587 20.5085L60.5184 20.6371L59.3351 22.2749H58.4947L60.1583 20.0454L58.5033 17.7988H59.3351ZM65.8066 22.3607C65.4407 22.3607 65.1149 22.2692 64.8291 22.0863C64.5432 21.9033 64.3174 21.6718 64.1516 21.3917V24.1014H63.397V17.7988H64.0659V18.6391C64.2431 18.3647 64.4746 18.1446 64.7605 17.9788C65.0463 17.8073 65.3578 17.7216 65.6951 17.7216C66.0038 17.7216 66.2868 17.7845 66.5441 17.9102C66.8013 18.036 67.0243 18.2075 67.2129 18.4247C67.4016 18.642 67.5473 18.8906 67.6502 19.1708C67.7588 19.4452 67.8132 19.7338 67.8132 20.0368C67.8132 20.4599 67.7274 20.8486 67.5559 21.203C67.3901 21.5575 67.1557 21.8404 66.8528 22.052C66.5498 22.2578 66.2011 22.3607 65.8066 22.3607ZM65.5751 21.709C65.798 21.709 65.9981 21.6632 66.1753 21.5718C66.3583 21.4746 66.5126 21.3488 66.6384 21.1945C66.7699 21.0344 66.8699 20.8543 66.9385 20.6542C67.0071 20.4541 67.0414 20.2483 67.0414 20.0368C67.0414 19.8139 67.0014 19.6024 66.9214 19.4023C66.847 19.2022 66.7384 19.025 66.5955 18.8706C66.4583 18.7163 66.2954 18.5962 66.1067 18.5105C65.9238 18.419 65.7237 18.3733 65.5065 18.3733C65.3693 18.3733 65.2264 18.399 65.0777 18.4505C64.9348 18.5019 64.7976 18.5762 64.6661 18.6734C64.5346 18.7649 64.4232 18.8706 64.3317 18.9907C64.2402 19.1107 64.1802 19.2394 64.1516 19.3766V20.6542C64.2374 20.8486 64.3517 21.0258 64.4946 21.1859C64.6375 21.3459 64.8033 21.4746 64.992 21.5718C65.1806 21.6632 65.375 21.709 65.5751 21.709ZM70.7205 22.3607C70.3832 22.3607 70.0745 22.3006 69.7944 22.1806C69.52 22.0548 69.2799 21.8862 69.0741 21.6747C68.874 21.4574 68.7168 21.2087 68.6025 20.9286C68.4938 20.6485 68.4395 20.3512 68.4395 20.0368C68.4395 19.6138 68.5367 19.2279 68.7311 18.8792C68.9255 18.5305 69.1941 18.2504 69.5371 18.0389C69.8859 17.8273 70.2832 17.7216 70.7291 17.7216C71.1807 17.7216 71.5723 17.8302 71.9038 18.0474C72.2411 18.2589 72.5012 18.5391 72.6842 18.8878C72.8728 19.2308 72.9671 19.6024 72.9671 20.0025C72.9671 20.0597 72.9643 20.1169 72.9586 20.174C72.9586 20.2255 72.9557 20.2655 72.95 20.2941H69.237C69.2599 20.5856 69.3399 20.8457 69.4771 21.0744C69.62 21.2974 69.803 21.4746 70.0259 21.6061C70.2489 21.7318 70.489 21.7947 70.7462 21.7947C71.0206 21.7947 71.2779 21.7261 71.518 21.5889C71.7638 21.4517 71.9324 21.2716 72.0239 21.0487L72.6756 21.2288C72.5784 21.446 72.4326 21.6404 72.2383 21.8119C72.0496 21.9834 71.8238 22.1177 71.5608 22.2149C71.3036 22.3121 71.0235 22.3607 70.7205 22.3607ZM69.2113 19.771H72.264C72.2411 19.4795 72.1582 19.2222 72.0153 18.9993C71.8724 18.7763 71.6895 18.6019 71.4665 18.4762C71.2436 18.3504 70.9977 18.2875 70.7291 18.2875C70.4661 18.2875 70.2231 18.3504 70.0002 18.4762C69.7772 18.6019 69.5943 18.7763 69.4514 18.9993C69.3142 19.2222 69.2342 19.4795 69.2113 19.771ZM77.6904 22.2749H76.9358V19.771C76.9358 19.2965 76.8615 18.9507 76.7129 18.7334C76.57 18.5105 76.3499 18.399 76.0526 18.399C75.8468 18.399 75.641 18.4505 75.4352 18.5534C75.2351 18.6563 75.055 18.7963 74.895 18.9735C74.7406 19.145 74.6291 19.3451 74.5605 19.5738V22.2749H73.8059V17.7988H74.4919V18.7592C74.612 18.5476 74.7663 18.3647 74.955 18.2104C75.1436 18.056 75.358 17.936 75.5981 17.8502C75.8382 17.7645 76.0898 17.7216 76.3527 17.7216C76.61 17.7216 76.8243 17.7702 76.9958 17.8674C77.1731 17.9588 77.3103 18.0903 77.4074 18.2618C77.5103 18.4276 77.5818 18.6248 77.6218 18.8535C77.6676 19.0821 77.6904 19.3308 77.6904 19.5995V22.2749ZM80.3988 22.3607C80.0272 22.3607 79.6785 22.3006 79.3526 22.1806C79.0268 22.0548 78.7467 21.869 78.5123 21.6232L78.8038 21.0916C79.0611 21.3317 79.3183 21.5032 79.5756 21.6061C79.8328 21.709 80.0958 21.7604 80.3645 21.7604C80.6732 21.7604 80.9247 21.7032 81.1191 21.5889C81.3134 21.4689 81.4106 21.2945 81.4106 21.0658C81.4106 20.9 81.3592 20.7771 81.2563 20.6971C81.1591 20.6171 81.019 20.5513 80.8361 20.4999C80.6532 20.4427 80.4359 20.3798 80.1844 20.3112C79.8757 20.2198 79.6156 20.1226 79.4041 20.0197C79.1926 19.9168 79.0325 19.7882 78.9239 19.6338C78.8153 19.4795 78.761 19.2851 78.761 19.0507C78.761 18.7649 78.8353 18.5248 78.9839 18.3304C79.1325 18.1303 79.3355 17.9788 79.5927 17.8759C79.8557 17.773 80.153 17.7216 80.4845 17.7216C80.8161 17.7216 81.1162 17.773 81.3849 17.8759C81.6536 17.9788 81.8851 18.1303 82.0795 18.3304L81.7365 18.8535C81.5593 18.6705 81.3649 18.5362 81.1534 18.4505C80.9419 18.359 80.7046 18.3133 80.4417 18.3133C80.2873 18.3133 80.1358 18.3333 79.9872 18.3733C79.8385 18.4076 79.7156 18.4733 79.6185 18.5705C79.5213 18.662 79.4727 18.7935 79.4727 18.965C79.4727 19.1079 79.5098 19.2222 79.5842 19.308C79.6642 19.388 79.7785 19.4566 79.9272 19.5138C80.0815 19.5709 80.2673 19.6338 80.4845 19.7024C80.8218 19.7996 81.1134 19.8968 81.3592 19.994C81.6107 20.0911 81.8051 20.2169 81.9423 20.3713C82.0795 20.5256 82.1481 20.74 82.1481 21.0144C82.1481 21.4374 81.988 21.769 81.6679 22.0091C81.3477 22.2435 80.9247 22.3607 80.3988 22.3607ZM85.0317 22.3607C84.6944 22.3607 84.3857 22.3006 84.1056 22.1806C83.8312 22.0548 83.5911 21.8862 83.3853 21.6747C83.1852 21.4574 83.028 21.2087 82.9137 20.9286C82.805 20.6485 82.7507 20.3512 82.7507 20.0368C82.7507 19.6138 82.8479 19.2279 83.0423 18.8792C83.2367 18.5305 83.5053 18.2504 83.8483 18.0389C84.1971 17.8273 84.5944 17.7216 85.0403 17.7216C85.4919 17.7216 85.8835 17.8302 86.215 18.0474C86.5523 18.2589 86.8124 18.5391 86.9954 18.8878C87.184 19.2308 87.2783 19.6024 87.2783 20.0025C87.2783 20.0597 87.2755 20.1169 87.2698 20.174C87.2698 20.2255 87.2669 20.2655 87.2612 20.2941H83.5482C83.5711 20.5856 83.6511 20.8457 83.7883 21.0744C83.9312 21.2974 84.1142 21.4746 84.3371 21.6061C84.5601 21.7318 84.8002 21.7947 85.0574 21.7947C85.3318 21.7947 85.5891 21.7261 85.8292 21.5889C86.075 21.4517 86.2436 21.2716 86.3351 21.0487L86.9868 21.2288C86.8896 21.446 86.7438 21.6404 86.5495 21.8119C86.3608 21.9834 86.135 22.1177 85.872 22.2149C85.6148 22.3121 85.3347 22.3607 85.0317 22.3607ZM83.5225 19.771H86.5752C86.5523 19.4795 86.4694 19.2222 86.3265 18.9993C86.1836 18.7763 86.0007 18.6019 85.7777 18.4762C85.5548 18.3504 85.3089 18.2875 85.0403 18.2875C84.7773 18.2875 84.5343 18.3504 84.3114 18.4762C84.0884 18.6019 83.9055 18.7763 83.7626 18.9993C83.6254 19.2222 83.5454 19.4795 83.5225 19.771ZM89.6521 22.3607C89.2805 22.3607 88.9318 22.3006 88.6059 22.1806C88.2801 22.0548 88 21.869 87.7656 21.6232L88.0571 21.0916C88.3144 21.3317 88.5716 21.5032 88.8289 21.6061C89.0861 21.709 89.3491 21.7604 89.6178 21.7604C89.9265 21.7604 90.178 21.7032 90.3724 21.5889C90.5667 21.4689 90.6639 21.2945 90.6639 21.0658C90.6639 20.9 90.6125 20.7771 90.5096 20.6971C90.4124 20.6171 90.2723 20.5513 90.0894 20.4999C89.9065 20.4427 89.6892 20.3798 89.4377 20.3112C89.129 20.2198 88.8689 20.1226 88.6574 20.0197C88.4459 19.9168 88.2858 19.7882 88.1772 19.6338C88.0686 19.4795 88.0142 19.2851 88.0142 19.0507C88.0142 18.7649 88.0886 18.5248 88.2372 18.3304C88.3858 18.1303 88.5888 17.9788 88.846 17.8759C89.109 17.773 89.4063 17.7216 89.7378 17.7216C90.0694 17.7216 90.3695 17.773 90.6382 17.8759C90.9069 17.9788 91.1384 18.1303 91.3328 18.3304L90.9898 18.8535C90.8126 18.6705 90.6182 18.5362 90.4067 18.4505C90.1952 18.359 89.9579 18.3133 89.6949 18.3133C89.5406 18.3133 89.3891 18.3333 89.2405 18.3733C89.0918 18.4076 88.9689 18.4733 88.8717 18.5705C88.7746 18.662 88.726 18.7935 88.726 18.965C88.726 19.1079 88.7631 19.2222 88.8374 19.308C88.9175 19.388 89.0318 19.4566 89.1804 19.5138C89.3348 19.5709 89.5206 19.6338 89.7378 19.7024C90.0751 19.7996 90.3667 19.8968 90.6125 19.994C90.864 20.0911 91.0584 20.2169 91.1956 20.3713C91.3328 20.5256 91.4014 20.74 91.4014 21.0144C91.4014 21.4374 91.2413 21.769 90.9212 22.0091C90.601 22.2435 90.178 22.3607 89.6521 22.3607Z" fill="#272727"/>
<g filter="url(#filter0_d_1_93)">
<rect x="16.45" y="14.2749" width="29.4" height="29.4" rx="2.45" fill="#ED5B75"/>
</g>
<g clip-path="url(#clip0_1_93)">
<path d="M31.1498 35.1C27.767 35.1 25.0248 32.3578 25.0248 28.975C25.0248 25.5921 27.767 22.85 31.1498 22.85C34.5326 22.85 37.2748 25.5921 37.2748 28.975C37.2748 32.3578 34.5326 35.1 31.1498 35.1ZM31.1498 33.875C32.4494 33.875 33.6957 33.3587 34.6146 32.4398C35.5336 31.5209 36.0498 30.2745 36.0498 28.975C36.0498 27.6754 35.5336 26.4291 34.6146 25.5102C33.6957 24.5912 32.4494 24.075 31.1498 24.075C29.8503 24.075 28.6039 24.5912 27.685 25.5102C26.7661 26.4291 26.2498 27.6754 26.2498 28.975C26.2498 30.2745 26.7661 31.5209 27.685 32.4398C28.6039 33.3587 29.8503 33.875 31.1498 33.875ZM29.0061 30.2H32.3748C32.456 30.2 32.5339 30.1677 32.5914 30.1103C32.6488 30.0528 32.6811 29.9749 32.6811 29.8937C32.6811 29.8125 32.6488 29.7346 32.5914 29.6772C32.5339 29.6197 32.456 29.5875 32.3748 29.5875H29.9248C29.5187 29.5875 29.1292 29.4261 28.8421 29.139C28.5549 28.8518 28.3936 28.4623 28.3936 28.0562C28.3936 27.6501 28.5549 27.2606 28.8421 26.9735C29.1292 26.6863 29.5187 26.525 29.9248 26.525H30.5373V25.3H31.7623V26.525H33.2936V27.75H29.9248C29.8436 27.75 29.7657 27.7822 29.7083 27.8397C29.6508 27.8971 29.6186 27.975 29.6186 28.0562C29.6186 28.1374 29.6508 28.2153 29.7083 28.2728C29.7657 28.3302 29.8436 28.3625 29.9248 28.3625H32.3748C32.7809 28.3625 33.1704 28.5238 33.4576 28.811C33.7447 29.0981 33.9061 29.4876 33.9061 29.8937C33.9061 30.2998 33.7447 30.6893 33.4576 30.9765C33.1704 31.2636 32.7809 31.425 32.3748 31.425H31.7623V32.65H30.5373V31.425H29.0061V30.2Z" fill="white"/>
</g>
<path d="M72.0924 40.6757C71.181 40.6757 70.4864 40.3339 70.0087 39.6504C69.5309 38.9668 69.292 37.9709 69.292 36.6626C69.292 35.3543 69.5309 34.3584 70.0087 33.6748C70.4864 32.9913 71.181 32.6495 72.0924 32.6495C73.0038 32.6495 73.6984 32.9913 74.1761 33.6748C74.6539 34.351 74.8927 35.3433 74.8927 36.6516C74.8927 37.9672 74.6539 38.9668 74.1761 39.6504C73.6984 40.3339 73.0038 40.6757 72.0924 40.6757ZM72.0924 39.7606C72.6583 39.7606 73.0736 39.5107 73.3382 39.0109C73.6102 38.5038 73.7461 37.7173 73.7461 36.6516C73.7461 35.5858 73.6138 34.8067 73.3492 34.3143C73.0846 33.8218 72.6657 33.5756 72.0924 33.5756C71.5264 33.5756 71.1075 33.8255 70.8355 34.3253C70.5709 34.8178 70.4386 35.5932 70.4386 36.6516C70.4386 37.7173 70.5709 38.5038 70.8355 39.0109C71.1075 39.5107 71.5264 39.7606 72.0924 39.7606ZM77.3801 39.2645V40.5875H76.0571V39.2645H77.3801ZM81.3517 40.6757C80.4403 40.6757 79.7457 40.3339 79.2679 39.6504C78.7902 38.9668 78.5513 37.9709 78.5513 36.6626C78.5513 35.3543 78.7902 34.3584 79.2679 33.6748C79.7457 32.9913 80.4403 32.6495 81.3517 32.6495C82.2631 32.6495 82.9576 32.9913 83.4354 33.6748C83.9131 34.351 84.152 35.3433 84.152 36.6516C84.152 37.9672 83.9131 38.9668 83.4354 39.6504C82.9576 40.3339 82.2631 40.6757 81.3517 40.6757ZM81.3517 39.7606C81.9176 39.7606 82.3329 39.5107 82.5975 39.0109C82.8694 38.5038 83.0054 37.7173 83.0054 36.6516C83.0054 35.5858 82.8731 34.8067 82.6085 34.3143C82.3439 33.8218 81.925 33.5756 81.3517 33.5756C80.7857 33.5756 80.3668 33.8255 80.0948 34.3253C79.8302 34.8178 79.6979 35.5932 79.6979 36.6516C79.6979 37.7173 79.8302 38.5038 80.0948 39.0109C80.3668 39.5107 80.7857 39.7606 81.3517 39.7606ZM87.9624 40.6757C87.051 40.6757 86.3564 40.3339 85.8786 39.6504C85.4009 38.9668 85.162 37.9709 85.162 36.6626C85.162 35.3543 85.4009 34.3584 85.8786 33.6748C86.3564 32.9913 87.051 32.6495 87.9624 32.6495C88.8738 32.6495 89.5683 32.9913 90.0461 33.6748C90.5238 34.351 90.7627 35.3433 90.7627 36.6516C90.7627 37.9672 90.5238 38.9668 90.0461 39.6504C89.5683 40.3339 88.8738 40.6757 87.9624 40.6757ZM87.9624 39.7606C88.5283 39.7606 88.9436 39.5107 89.2082 39.0109C89.4801 38.5038 89.6161 37.7173 89.6161 36.6516C89.6161 35.5858 89.4838 34.8067 89.2192 34.3143C88.9546 33.8218 88.5357 33.5756 87.9624 33.5756C87.3964 33.5756 86.9775 33.8255 86.7055 34.3253C86.4409 34.8178 86.3086 35.5932 86.3086 36.6516C86.3086 37.7173 86.4409 38.5038 86.7055 39.0109C86.9775 39.5107 87.3964 39.7606 87.9624 39.7606ZM94.9479 35.6152C95.4404 35.6152 95.8703 35.7218 96.2378 35.935C96.6127 36.1408 96.8993 36.4348 97.0978 36.817C97.3036 37.1918 97.4065 37.6255 97.4065 38.1179C97.4065 38.6251 97.2926 39.0697 97.0647 39.4519C96.8442 39.8341 96.5245 40.1318 96.1055 40.345C95.6866 40.5581 95.1978 40.6647 94.6392 40.6647C94.1541 40.6647 93.6764 40.5802 93.206 40.4111C92.7356 40.2421 92.346 40.0105 92.0373 39.7165L92.4342 38.8786C93.1619 39.4519 93.9005 39.7386 94.6502 39.7386C95.1721 39.7386 95.5763 39.5989 95.863 39.3196C96.157 39.033 96.304 38.6398 96.304 38.14C96.304 37.6622 96.157 37.2763 95.863 36.9823C95.5763 36.6883 95.1905 36.5413 94.7054 36.5413C93.9998 36.5413 93.4338 36.8096 93.0075 37.3462H92.2688V32.7377H97.0757V33.6528H93.3934V36.1444C93.8123 35.7916 94.3305 35.6152 94.9479 35.6152ZM101.731 32.7377H106.824V33.6638H102.855V36.1334H106.604V37.0595H102.855V39.6614H106.824V40.5875H101.731V32.7377ZM109.589 35.8909V38.6802C109.589 39.0624 109.67 39.3343 109.832 39.496C110.001 39.6504 110.233 39.7276 110.527 39.7276C110.718 39.7276 110.912 39.6982 111.111 39.6394V40.5434C110.868 40.6243 110.593 40.6647 110.284 40.6647C109.711 40.6647 109.266 40.503 108.95 40.1796C108.634 39.8562 108.476 39.3858 108.476 38.7684V35.8909H107.395V35.0309H108.476V33.6418L109.589 33.2559V35.0309H111.122V35.8909H109.589ZM115.105 34.8986C116.435 34.8986 117.101 35.641 117.101 37.1257V40.5875H115.987V37.1918C115.987 36.7067 115.892 36.3539 115.7 36.1334C115.517 35.9129 115.219 35.8027 114.807 35.8027C114.337 35.8027 113.958 35.9497 113.672 36.2437C113.393 36.5377 113.253 36.9309 113.253 37.4233V40.5875H112.15V32.4731H113.253V35.8909C113.437 35.5675 113.69 35.3212 114.014 35.1522C114.337 34.9831 114.701 34.8986 115.105 34.8986ZM123.426 37.8313H119.457C119.494 39.1322 120.086 39.7827 121.232 39.7827C121.872 39.7827 122.456 39.5732 122.985 39.1543L123.327 39.9481C123.077 40.1686 122.758 40.345 122.368 40.4773C121.986 40.6022 121.6 40.6647 121.21 40.6647C120.321 40.6647 119.623 40.4111 119.116 39.904C118.609 39.3895 118.355 38.6875 118.355 37.7982C118.355 37.2322 118.465 36.7288 118.686 36.2878C118.914 35.8468 119.23 35.505 119.634 35.2624C120.038 35.0199 120.497 34.8986 121.012 34.8986C121.762 34.8986 122.35 35.1412 122.776 35.6263C123.21 36.1114 123.426 36.7839 123.426 37.6438V37.8313ZM121.034 35.7255C120.615 35.7255 120.273 35.8504 120.009 36.1003C119.744 36.3502 119.575 36.7067 119.502 37.1698H122.445C122.401 36.6994 122.258 36.3429 122.015 36.1003C121.773 35.8504 121.446 35.7255 121.034 35.7255ZM127.471 34.8986C127.641 34.8986 127.817 34.9243 128.001 34.9758L127.979 35.9901C127.78 35.9166 127.563 35.8798 127.328 35.8798C126.821 35.8798 126.439 36.0342 126.182 36.3429C125.932 36.6442 125.807 37.0264 125.807 37.4895V40.5875H124.704V36.5965C124.704 36.0158 124.675 35.494 124.616 35.0309H125.652L125.752 36.0342C125.899 35.6667 126.126 35.3874 126.435 35.1963C126.744 34.9978 127.089 34.8986 127.471 34.8986Z" fill="#ED5B75"/>
<mask id="mask0_1_93" style="mask-type:alpha" maskUnits="userSpaceOnUse" x="51" y="29" width="14" height="16">
<rect x="51.2666" y="29.2644" width="13.7156" height="14.9067" fill="#C4C4C4"/>
</mask>
<g mask="url(#mask0_1_93)">
<path fill-rule="evenodd" clip-rule="evenodd" d="M62.0062 37.1009L58.1798 39.2971L54.3533 37.1009L58.1798 30.9352L62.0062 37.1009ZM46.0413 49.1928C46.1055 49.1928 46.1594 49.1405 46.1594 49.0781C46.1594 48.3615 45.6018 47.6952 44.8328 47.6972C44.0638 47.6972 43.5145 48.3655 43.5145 49.0821C43.5145 49.7987 44.0617 50.467 44.8328 50.467C45.2826 50.467 45.7407 50.2758 45.9708 49.8853C45.9811 49.8652 45.9915 49.845 45.9853 49.8088C45.9791 49.7726 45.9542 49.7424 45.921 49.7283C45.8588 49.7021 45.8091 49.7303 45.7759 49.7746C45.5458 50.0926 45.2432 50.2436 44.8328 50.2436C44.2337 50.2436 43.8088 49.7424 43.7508 49.1928H46.0413ZM44.8328 47.9166C45.4318 47.9166 45.8651 48.4178 45.9148 48.9674H43.7508C43.8088 48.4178 44.2337 47.9166 44.8328 47.9166ZM49.051 47.8622C49.051 47.8079 49.0033 47.7515 48.937 47.7515H48.3255V46.892C48.3255 46.8215 48.2654 46.7712 48.1887 46.7833C48.1327 46.7913 48.0954 46.8417 48.0954 46.896V47.7515H47.5047C47.4404 47.7515 47.3907 47.8059 47.3907 47.8622C47.3907 47.9247 47.4383 47.973 47.5047 47.973H48.0954V50.312C48.0954 50.3664 48.1431 50.4227 48.2094 50.4227C48.2737 50.4227 48.3234 50.3684 48.3234 50.312V47.973H48.937C49.0013 47.973 49.051 47.9267 49.051 47.8622ZM52.6826 50.2979V48.8808C52.6826 48.2769 52.2971 47.7032 51.6255 47.7032C51.2171 47.7032 50.8647 47.9347 50.6678 48.2769V45.644C50.6678 45.5896 50.6202 45.5332 50.5538 45.5332C50.4896 45.5332 50.4398 45.5876 50.4398 45.644V50.2979C50.4398 50.3684 50.4999 50.4187 50.5766 50.4066C50.6326 50.3986 50.6699 50.3483 50.6699 50.2939V49.2311C50.6699 49.2277 50.6685 49.2137 50.6668 49.1972C50.6645 49.174 50.6616 49.1459 50.6616 49.1365C50.6202 48.5225 50.9228 47.9267 51.6275 47.9267C52.1769 47.9267 52.4546 48.4037 52.4546 48.8808V50.2979C52.4546 50.3603 52.5023 50.4087 52.5686 50.4087C52.6246 50.4087 52.6826 50.3624 52.6826 50.2979ZM56.6687 49.1928C56.7329 49.1928 56.7868 49.1405 56.7868 49.0781C56.7848 48.3615 56.2292 47.6952 55.4602 47.6972C54.6912 47.6972 54.1419 48.3655 54.1419 49.0821C54.1419 49.7987 54.6891 50.467 55.4602 50.467C55.91 50.467 56.3681 50.2758 56.5982 49.8853C56.6086 49.8652 56.6189 49.845 56.6127 49.8088C56.6065 49.7726 56.5816 49.7424 56.5485 49.7283C56.4863 49.7021 56.4365 49.7303 56.4034 49.7746C56.1733 50.0926 55.8706 50.2436 55.4602 50.2436C54.8612 50.2436 54.4362 49.7424 54.3782 49.1928H56.6687ZM55.4582 47.9166C56.0572 47.9166 56.4904 48.4178 56.5402 48.9674H54.3761C54.4342 48.4178 54.8591 47.9166 55.4582 47.9166ZM59.4919 47.973C59.5562 47.9649 59.5976 47.9267 59.5976 47.8542C59.5976 47.7898 59.5313 47.7515 59.4753 47.7495C59.0835 47.7495 58.7063 48.0434 58.5177 48.3534V47.8602C58.5177 47.7898 58.4575 47.7395 58.3809 47.7515C58.3249 47.7596 58.2876 47.8099 58.2876 47.8643V50.2899C58.2876 50.3603 58.3477 50.4107 58.4244 50.3986C58.4803 50.3905 58.5177 50.3402 58.5177 50.2859V49.223C58.5177 48.601 58.8203 48.0676 59.4919 47.973ZM63.2396 49.1928C63.3038 49.1928 63.3577 49.1405 63.3577 49.0781C63.3557 48.3615 62.8001 47.6952 62.0311 47.6972C61.2621 47.6972 60.7128 48.3655 60.7128 49.0821C60.7128 49.7987 61.26 50.467 62.0311 50.467C62.4809 50.467 62.939 50.2758 63.1691 49.8853C63.1795 49.8652 63.1898 49.845 63.1836 49.8088C63.1774 49.7726 63.1525 49.7424 63.1194 49.7283C63.0572 49.7021 63.0074 49.7303 62.9743 49.7746C62.7442 50.0926 62.4415 50.2436 62.0311 50.2436C61.4321 50.2436 61.0071 49.7424 60.9491 49.1928H63.2396ZM62.029 47.9166C62.6281 47.9166 63.0613 48.4178 63.1111 48.9674H60.947C61.0051 48.4178 61.43 47.9166 62.029 47.9166ZM67.0536 50.312V47.8824C67.0536 47.8321 67.0204 47.7858 66.9707 47.7697C66.8899 47.7475 66.8235 47.8119 66.8235 47.8763V48.7842C66.8235 49.5552 66.6432 50.2557 65.8721 50.2557C65.3228 50.2557 65.045 49.7786 65.045 49.3015V47.8763C65.045 47.822 64.9973 47.7656 64.931 47.7656C64.8668 47.7656 64.817 47.82 64.817 47.8763V49.3015C64.817 49.9054 65.1943 50.4791 65.8742 50.4791C66.3012 50.4791 66.637 50.2174 66.8256 49.8511V50.312C66.8256 50.3744 66.8733 50.4227 66.9396 50.4227C66.9956 50.4227 67.0536 50.3764 67.0536 50.312ZM72.8451 50.2979V48.8728C72.8451 48.2689 72.4596 47.7032 71.79 47.7012C71.3154 47.7012 70.9464 47.9951 70.7578 48.4098C70.6106 47.9871 70.2499 47.7012 69.7835 47.7012C69.3752 47.7012 69.0228 47.9247 68.8259 48.2669V47.8602C68.8259 47.7898 68.7658 47.7395 68.6891 47.7515C68.6331 47.7596 68.5958 47.8099 68.5958 47.8643V50.2979C68.5958 50.3684 68.6559 50.4187 68.7326 50.4066C68.7886 50.3986 68.8259 50.3483 68.8259 50.2939V49.223C68.8315 49.2175 68.8295 49.2007 68.8276 49.1855C68.8267 49.1785 68.8259 49.1717 68.8259 49.1667C68.801 48.4581 69.0871 47.9247 69.7835 47.9247C70.3328 47.9247 70.6106 48.3937 70.6106 48.8707V50.2959C70.6106 50.3583 70.6583 50.4066 70.7246 50.4066C70.7806 50.4066 70.8386 50.3603 70.8386 50.2959V49.1989C70.8386 48.6433 71.1019 47.9267 71.79 47.9267C72.3393 47.9267 72.6171 48.3957 72.6171 48.8728V50.2979C72.6171 50.3603 72.6648 50.4087 72.7311 50.4087C72.7871 50.4087 72.8451 50.3624 72.8451 50.2979ZM62.0083 37.8055L58.1798 43.0412L54.3533 37.8055L58.1798 39.9996L62.0083 37.8055Z" fill="#ED5B75"/>
</g>
<defs>
<filter id="filter0_d_1_93" x="0.524997" y="0.799902" width="66.15" height="66.15" filterUnits="userSpaceOnUse" color-interpolation-filters="sRGB">
<feFlood flood-opacity="0" result="BackgroundImageFix"/>
<feColorMatrix in="SourceAlpha" type="matrix" values="0 0 0 0 0 0 0 0 0 0 0 0 0 0 0 0 0 0 127 0" result="hardAlpha"/>
<feOffset dx="2.45" dy="4.9"/>
<feGaussianBlur stdDeviation="9.1875"/>
<feComposite in2="hardAlpha" operator="out"/>
<feColorMatrix type="matrix" values="0 0 0 0 0.929412 0 0 0 0 0.356863 0 0 0 0 0.458824 0 0 0 0.35 0"/>
<feBlend mode="normal" in2="BackgroundImageFix" result="effect1_dropShadow_1_93"/>
<feBlend mode="normal" in="SourceGraphic" in2="effect1_dropShadow_1_93" result="shape"/>
</filter>
<clipPath id="clip0_1_93">
<rect width="14.7" height="14.7" fill="white" transform="translate(23.7999 21.625)"/>
</clipPath>
</defs>
</svg>
