<svg width="129" height="67" viewBox="0 0 129 67" fill="none" xmlns="http://www.w3.org/2000/svg">
<path d="M56.1583 16.121H56.8872L57.6933 18.239L58.5079 16.121H59.2368L58.182 18.7707L59.2282 21.2831L61.2862 16.0867H62.1265L59.5798 22.1749H58.9109L57.7018 19.3023L56.4842 22.1749H55.8153L53.2771 16.0867H54.1089L56.1755 21.2831L57.2131 18.7707L56.1583 16.121ZM64.2306 22.2607C63.8933 22.2607 63.5846 22.2007 63.3045 22.0806C63.0301 21.9548 62.79 21.7862 62.5842 21.5747C62.3841 21.3574 62.2269 21.1088 62.1126 20.8287C62.004 20.5485 61.9497 20.2513 61.9497 19.9369C61.9497 19.5138 62.0468 19.1279 62.2412 18.7792C62.4356 18.4305 62.7043 18.1504 63.0473 17.9389C63.396 17.7274 63.7933 17.6216 64.2392 17.6216C64.6908 17.6216 65.0824 17.7302 65.414 17.9475C65.7512 18.159 66.0114 18.4391 66.1943 18.7878C66.3829 19.1308 66.4773 19.5024 66.4773 19.9026C66.4773 19.9597 66.4744 20.0169 66.4687 20.0741C66.4687 20.1255 66.4658 20.1655 66.4601 20.1941H62.7471C62.77 20.4857 62.85 20.7458 62.9872 20.9744C63.1302 21.1974 63.3131 21.3746 63.536 21.5061C63.759 21.6318 63.9991 21.6947 64.2563 21.6947C64.5307 21.6947 64.788 21.6261 65.0281 21.4889C65.2739 21.3517 65.4425 21.1717 65.534 20.9487L66.1857 21.1288C66.0885 21.346 65.9428 21.5404 65.7484 21.7119C65.5597 21.8834 65.3339 22.0177 65.071 22.1149C64.8137 22.2121 64.5336 22.2607 64.2306 22.2607ZM62.7214 19.671H65.7741C65.7512 19.3795 65.6684 19.1222 65.5254 18.8993C65.3825 18.6763 65.1996 18.502 64.9766 18.3762C64.7537 18.2504 64.5079 18.1876 64.2392 18.1876C63.9762 18.1876 63.7333 18.2504 63.5103 18.3762C63.2874 18.502 63.1044 18.6763 62.9615 18.8993C62.8243 19.1222 62.7443 19.3795 62.7214 19.671ZM69.2969 22.2607C68.9596 22.2607 68.6509 22.2007 68.3708 22.0806C68.0964 21.9548 67.8563 21.7862 67.6505 21.5747C67.4504 21.3574 67.2932 21.1088 67.1789 20.8287C67.0703 20.5485 67.016 20.2513 67.016 19.9369C67.016 19.5138 67.1131 19.1279 67.3075 18.7792C67.5019 18.4305 67.7706 18.1504 68.1136 17.9389C68.4623 17.7274 68.8596 17.6216 69.3055 17.6216C69.7571 17.6216 70.1487 17.7302 70.4803 17.9475C70.8175 18.159 71.0776 18.4391 71.2606 18.7878C71.4492 19.1308 71.5436 19.5024 71.5436 19.9026C71.5436 19.9597 71.5407 20.0169 71.535 20.0741C71.535 20.1255 71.5321 20.1655 71.5264 20.1941H67.8134C67.8363 20.4857 67.9163 20.7458 68.0535 20.9744C68.1964 21.1974 68.3794 21.3746 68.6023 21.5061C68.8253 21.6318 69.0654 21.6947 69.3226 21.6947C69.597 21.6947 69.8543 21.6261 70.0944 21.4889C70.3402 21.3517 70.5088 21.1717 70.6003 20.9487L71.252 21.1288C71.1548 21.346 71.009 21.5404 70.8147 21.7119C70.626 21.8834 70.4002 22.0177 70.1373 22.1149C69.88 22.2121 69.5999 22.2607 69.2969 22.2607ZM67.7877 19.671H70.8404C70.8175 19.3795 70.7346 19.1222 70.5917 18.8993C70.4488 18.6763 70.2659 18.502 70.0429 18.3762C69.82 18.2504 69.5742 18.1876 69.3055 18.1876C69.0425 18.1876 68.7996 18.2504 68.5766 18.3762C68.3537 18.502 68.1707 18.6763 68.0278 18.8993C67.8906 19.1222 67.8106 19.3795 67.7877 19.671ZM75.538 22.1749L73.9859 19.9969L73.137 20.7944V22.1749H72.3824V15.9152H73.137V20.0055L75.4522 17.7074H76.2668L74.4832 19.5596L76.3526 22.1749H75.538ZM77.022 15.9152H77.7766V21.0173C77.7766 21.2631 77.8109 21.4146 77.8795 21.4718C77.9481 21.5289 78.031 21.5575 78.1281 21.5575C78.2482 21.5575 78.3625 21.5461 78.4711 21.5232C78.5798 21.4946 78.6712 21.4661 78.7455 21.4375L78.8656 22.0549C78.7398 22.1063 78.5912 22.1492 78.4197 22.1835C78.2482 22.2178 78.0967 22.235 77.9652 22.235C77.6737 22.235 77.4421 22.1521 77.2706 21.9863C77.1049 21.8205 77.022 21.589 77.022 21.2917V15.9152ZM79.5721 23.3926C79.6464 23.3983 79.7207 23.404 79.795 23.4097C79.8694 23.4212 79.9265 23.4269 79.9665 23.4269C80.058 23.4269 80.138 23.3954 80.2066 23.3326C80.2752 23.2697 80.3496 23.1468 80.4296 22.9638C80.5153 22.7866 80.624 22.5236 80.7554 22.1749L78.8604 17.6988H79.6578L81.167 21.4118L82.5305 17.6988H83.2765L81.0984 23.3497C81.047 23.4812 80.9698 23.6041 80.8669 23.7184C80.7697 23.8385 80.644 23.9328 80.4896 24.0014C80.3353 24.07 80.1495 24.1043 79.9322 24.1043C79.8808 24.1043 79.8265 24.1014 79.7693 24.0957C79.7179 24.09 79.6521 24.0786 79.5721 24.0614V23.3926ZM86.0934 22.1749V16.0867H88.7002C88.9689 16.0867 89.2147 16.1438 89.4377 16.2582C89.6606 16.3668 89.855 16.5154 90.0208 16.7041C90.1866 16.887 90.3152 17.0957 90.4067 17.3301C90.4981 17.5587 90.5439 17.7931 90.5439 18.0332C90.5439 18.3133 90.4896 18.5791 90.3809 18.8307C90.278 19.0822 90.1294 19.2966 89.935 19.4738C89.7464 19.651 89.5234 19.7739 89.2662 19.8425L90.7411 22.1749H89.8664L88.4773 19.9883H86.8652V22.1749H86.0934ZM86.8652 19.3023H88.7088C88.9203 19.3023 89.1033 19.2451 89.2576 19.1308C89.4177 19.0108 89.5406 18.8535 89.6263 18.6592C89.7178 18.4648 89.7635 18.2562 89.7635 18.0332C89.7635 17.8045 89.7121 17.5959 89.6092 17.4072C89.5063 17.2129 89.372 17.0585 89.2062 16.9442C89.0404 16.8298 88.8575 16.7727 88.6574 16.7727H86.8652V19.3023ZM93.4643 22.2607C93.1271 22.2607 92.8184 22.2007 92.5382 22.0806C92.2638 21.9548 92.0237 21.7862 91.8179 21.5747C91.6179 21.3574 91.4606 21.1088 91.3463 20.8287C91.2377 20.5485 91.1834 20.2513 91.1834 19.9369C91.1834 19.5138 91.2806 19.1279 91.4749 18.7792C91.6693 18.4305 91.938 18.1504 92.281 17.9389C92.6297 17.7274 93.027 17.6216 93.4729 17.6216C93.9245 17.6216 94.3161 17.7302 94.6477 17.9475C94.985 18.159 95.2451 18.4391 95.428 18.7878C95.6167 19.1308 95.711 19.5024 95.711 19.9026C95.711 19.9597 95.7081 20.0169 95.7024 20.0741C95.7024 20.1255 95.6996 20.1655 95.6938 20.1941H91.9809C92.0037 20.4857 92.0838 20.7458 92.221 20.9744C92.3639 21.1974 92.5468 21.3746 92.7698 21.5061C92.9927 21.6318 93.2328 21.6947 93.4901 21.6947C93.7645 21.6947 94.0217 21.6261 94.2618 21.4889C94.5076 21.3517 94.6763 21.1717 94.7677 20.9487L95.4194 21.1288C95.3223 21.346 95.1765 21.5404 94.9821 21.7119C94.7935 21.8834 94.5677 22.0177 94.3047 22.1149C94.0474 22.2121 93.7673 22.2607 93.4643 22.2607ZM91.9551 19.671H95.0078C94.985 19.3795 94.9021 19.1222 94.7592 18.8993C94.6162 18.6763 94.4333 18.502 94.2104 18.3762C93.9874 18.2504 93.7416 18.1876 93.4729 18.1876C93.2099 18.1876 92.967 18.2504 92.744 18.3762C92.5211 18.502 92.3382 18.6763 92.1952 18.8993C92.058 19.1222 91.978 19.3795 91.9551 19.671ZM98.8315 21.952C98.7687 21.9806 98.6829 22.0177 98.5743 22.0635C98.4657 22.1092 98.3399 22.1492 98.197 22.1835C98.0541 22.2178 97.9026 22.235 97.7425 22.235C97.5596 22.235 97.3909 22.2035 97.2366 22.1406C97.0822 22.072 96.9593 21.9691 96.8679 21.8319C96.7764 21.689 96.7307 21.5118 96.7307 21.3003V18.2905H96.1218V17.6988H96.7307V16.2067H97.4853V17.6988H98.4885V18.2905H97.4853V21.0688C97.4967 21.2288 97.551 21.3489 97.6482 21.4289C97.7454 21.5032 97.8597 21.5404 97.9912 21.5404C98.1398 21.5404 98.277 21.5147 98.4028 21.4632C98.5286 21.4118 98.6115 21.3746 98.6515 21.3517L98.8315 21.952ZM99.4881 20.3828V17.6988H100.243V20.237C100.243 20.6943 100.323 21.0373 100.483 21.266C100.643 21.4946 100.88 21.609 101.194 21.609C101.4 21.609 101.598 21.5661 101.786 21.4804C101.981 21.3889 102.155 21.2603 102.309 21.0945C102.464 20.9287 102.584 20.7315 102.669 20.5028V17.6988H103.424V21.3174C103.424 21.4089 103.441 21.4775 103.475 21.5232C103.515 21.5632 103.578 21.5861 103.664 21.5918V22.1749C103.578 22.1864 103.51 22.1921 103.458 22.1921C103.413 22.1978 103.367 22.2007 103.321 22.2007C103.178 22.2007 103.055 22.1578 102.952 22.072C102.849 21.9806 102.795 21.8691 102.789 21.7376L102.772 21.2145C102.578 21.5461 102.315 21.8033 101.983 21.9863C101.658 22.1692 101.3 22.2607 100.912 22.2607C100.443 22.2607 100.088 22.1035 99.8482 21.7891C99.6081 21.4689 99.4881 21.0002 99.4881 20.3828ZM107.048 18.3591C106.67 18.3648 106.336 18.462 106.044 18.6506C105.759 18.8335 105.556 19.0879 105.436 19.4138V22.1749H104.681V17.6988H105.384V18.7364C105.538 18.4277 105.741 18.179 105.993 17.9903C106.25 17.796 106.519 17.6873 106.799 17.6645C106.856 17.6645 106.905 17.6645 106.945 17.6645C106.985 17.6645 107.019 17.6673 107.048 17.6731V18.3591ZM111.681 22.1749H110.926V19.671C110.926 19.1965 110.852 18.8507 110.703 18.6335C110.56 18.4105 110.34 18.299 110.043 18.299C109.837 18.299 109.631 18.3505 109.425 18.4534C109.225 18.5563 109.045 18.6963 108.885 18.8736C108.731 19.0451 108.619 19.2451 108.551 19.4738V22.1749H107.796V17.6988H108.482V18.6592C108.602 18.4477 108.757 18.2647 108.945 18.1104C109.134 17.956 109.348 17.836 109.588 17.7502C109.828 17.6645 110.08 17.6216 110.343 17.6216C110.6 17.6216 110.815 17.6702 110.986 17.7674C111.163 17.8588 111.3 17.9903 111.398 18.1618C111.501 18.3276 111.572 18.5248 111.612 18.7535C111.658 18.9822 111.681 19.2308 111.681 19.4995V22.1749ZM114.389 22.2607C114.017 22.2607 113.669 22.2007 113.343 22.0806C113.017 21.9548 112.737 21.769 112.502 21.5232L112.794 20.9916C113.051 21.2317 113.308 21.4032 113.566 21.5061C113.823 21.609 114.086 21.6604 114.355 21.6604C114.663 21.6604 114.915 21.6033 115.109 21.4889C115.304 21.3689 115.401 21.1945 115.401 20.9659C115.401 20.8001 115.349 20.6772 115.246 20.5971C115.149 20.5171 115.009 20.4514 114.826 20.3999C114.643 20.3427 114.426 20.2799 114.175 20.2113C113.866 20.1198 113.606 20.0226 113.394 19.9197C113.183 19.8168 113.023 19.6882 112.914 19.5338C112.805 19.3795 112.751 19.1851 112.751 18.9507C112.751 18.6649 112.825 18.4248 112.974 18.2304C113.123 18.0303 113.326 17.8789 113.583 17.776C113.846 17.6731 114.143 17.6216 114.475 17.6216C114.806 17.6216 115.106 17.6731 115.375 17.776C115.644 17.8789 115.875 18.0303 116.07 18.2304L115.727 18.7535C115.549 18.5706 115.355 18.4362 115.144 18.3505C114.932 18.259 114.695 18.2133 114.432 18.2133C114.277 18.2133 114.126 18.2333 113.977 18.2733C113.829 18.3076 113.706 18.3733 113.609 18.4705C113.511 18.562 113.463 18.6935 113.463 18.865C113.463 19.0079 113.5 19.1222 113.574 19.208C113.654 19.288 113.769 19.3566 113.917 19.4138C114.072 19.4709 114.257 19.5338 114.475 19.6024C114.812 19.6996 115.104 19.7968 115.349 19.894C115.601 19.9912 115.795 20.1169 115.932 20.2713C116.07 20.4256 116.138 20.64 116.138 20.9144C116.138 21.3374 115.978 21.669 115.658 21.9091C115.338 22.1435 114.915 22.2607 114.389 22.2607Z" fill="#272727"/>
<g filter="url(#filter0_d_1_76)">
<rect x="16.45" y="14.1749" width="29.4" height="29.4" rx="2.45" fill="#4FDFB1"/>
</g>
<g clip-path="url(#clip0_1_76)">
<path d="M34.2123 23.3626H36.6623C36.8248 23.3626 36.9805 23.4271 37.0954 23.542C37.2103 23.6568 37.2748 23.8126 37.2748 23.9751V33.7751C37.2748 33.9375 37.2103 34.0933 37.0954 34.2082C36.9805 34.323 36.8248 34.3876 36.6623 34.3876H25.6373C25.4749 34.3876 25.3191 34.323 25.2042 34.2082C25.0893 34.0933 25.0248 33.9375 25.0248 33.7751V23.9751C25.0248 23.8126 25.0893 23.6568 25.2042 23.542C25.3191 23.4271 25.4749 23.3626 25.6373 23.3626H28.0873V22.1376H29.3123V23.3626H32.9873V22.1376H34.2123V23.3626ZM26.2498 27.0376V33.1626H36.0498V27.0376H26.2498ZM27.4748 28.2626H28.6998V29.4876H27.4748V28.2626ZM30.5373 28.2626H31.7623V29.4876H30.5373V28.2626ZM33.5998 28.2626H34.8248V29.4876H33.5998V28.2626Z" fill="white"/>
</g>
<path d="M72.0924 40.5757C71.181 40.5757 70.4864 40.234 70.0087 39.5504C69.5309 38.8669 69.292 37.8709 69.292 36.5626C69.292 35.2543 69.5309 34.2584 70.0087 33.5749C70.4864 32.8913 71.181 32.5495 72.0924 32.5495C73.0038 32.5495 73.6984 32.8913 74.1761 33.5749C74.6539 34.2511 74.8927 35.2433 74.8927 36.5516C74.8927 37.8673 74.6539 38.8669 74.1761 39.5504C73.6984 40.234 73.0038 40.5757 72.0924 40.5757ZM72.0924 39.6607C72.6583 39.6607 73.0736 39.4108 73.3382 38.911C73.6102 38.4038 73.7461 37.6174 73.7461 36.5516C73.7461 35.4859 73.6138 34.7068 73.3492 34.2143C73.0846 33.7219 72.6657 33.4756 72.0924 33.4756C71.5264 33.4756 71.1075 33.7255 70.8355 34.2253C70.5709 34.7178 70.4386 35.4932 70.4386 36.5516C70.4386 37.6174 70.5709 38.4038 70.8355 38.911C71.1075 39.4108 71.5264 39.6607 72.0924 39.6607ZM77.3801 39.1645V40.4875H76.0571V39.1645H77.3801ZM81.3517 40.5757C80.4403 40.5757 79.7457 40.234 79.2679 39.5504C78.7902 38.8669 78.5513 37.8709 78.5513 36.5626C78.5513 35.2543 78.7902 34.2584 79.2679 33.5749C79.7457 32.8913 80.4403 32.5495 81.3517 32.5495C82.2631 32.5495 82.9576 32.8913 83.4354 33.5749C83.9131 34.2511 84.152 35.2433 84.152 36.5516C84.152 37.8673 83.9131 38.8669 83.4354 39.5504C82.9576 40.234 82.2631 40.5757 81.3517 40.5757ZM81.3517 39.6607C81.9176 39.6607 82.3329 39.4108 82.5975 38.911C82.8694 38.4038 83.0054 37.6174 83.0054 36.5516C83.0054 35.4859 82.8731 34.7068 82.6085 34.2143C82.3439 33.7219 81.925 33.4756 81.3517 33.4756C80.7857 33.4756 80.3668 33.7255 80.0948 34.2253C79.8302 34.7178 79.6979 35.4932 79.6979 36.5516C79.6979 37.6174 79.8302 38.4038 80.0948 38.911C80.3668 39.4108 80.7857 39.6607 81.3517 39.6607ZM87.9624 40.5757C87.051 40.5757 86.3564 40.234 85.8786 39.5504C85.4009 38.8669 85.162 37.8709 85.162 36.5626C85.162 35.2543 85.4009 34.2584 85.8786 33.5749C86.3564 32.8913 87.051 32.5495 87.9624 32.5495C88.8738 32.5495 89.5683 32.8913 90.0461 33.5749C90.5238 34.2511 90.7627 35.2433 90.7627 36.5516C90.7627 37.8673 90.5238 38.8669 90.0461 39.5504C89.5683 40.234 88.8738 40.5757 87.9624 40.5757ZM87.9624 39.6607C88.5283 39.6607 88.9436 39.4108 89.2082 38.911C89.4801 38.4038 89.6161 37.6174 89.6161 36.5516C89.6161 35.4859 89.4838 34.7068 89.2192 34.2143C88.9546 33.7219 88.5357 33.4756 87.9624 33.4756C87.3964 33.4756 86.9775 33.7255 86.7055 34.2253C86.4409 34.7178 86.3086 35.4932 86.3086 36.5516C86.3086 37.6174 86.4409 38.4038 86.7055 38.911C86.9775 39.4108 87.3964 39.6607 87.9624 39.6607ZM94.9479 35.5153C95.4404 35.5153 95.8703 35.6218 96.2378 35.835C96.6127 36.0408 96.8993 36.3348 97.0978 36.717C97.3036 37.0918 97.4065 37.5255 97.4065 38.0179C97.4065 38.5251 97.2926 38.9698 97.0647 39.352C96.8442 39.7342 96.5245 40.0318 96.1055 40.245C95.6866 40.4581 95.1978 40.5647 94.6392 40.5647C94.1541 40.5647 93.6764 40.4802 93.206 40.3111C92.7356 40.1421 92.346 39.9106 92.0373 39.6166L92.4342 38.7787C93.1619 39.352 93.9005 39.6386 94.6502 39.6386C95.1721 39.6386 95.5763 39.499 95.863 39.2197C96.157 38.933 96.304 38.5398 96.304 38.04C96.304 37.5622 96.157 37.1764 95.863 36.8824C95.5763 36.5884 95.1905 36.4414 94.7054 36.4414C93.9998 36.4414 93.4338 36.7096 93.0075 37.2462H92.2688V32.6377H97.0757V33.5528H93.3934V36.0445C93.8123 35.6917 94.3305 35.5153 94.9479 35.5153ZM101.731 32.6377H106.824V33.5638H102.855V36.0334H106.604V36.9595H102.855V39.5614H106.824V40.4875H101.731V32.6377ZM109.589 35.7909V38.5802C109.589 38.9624 109.67 39.2344 109.832 39.3961C110.001 39.5504 110.233 39.6276 110.527 39.6276C110.718 39.6276 110.912 39.5982 111.111 39.5394V40.4434C110.868 40.5243 110.593 40.5647 110.284 40.5647C109.711 40.5647 109.266 40.403 108.95 40.0796C108.634 39.7562 108.476 39.2858 108.476 38.6684V35.7909H107.395V34.9309H108.476V33.5418L109.589 33.1559V34.9309H111.122V35.7909H109.589ZM115.105 34.7986C116.435 34.7986 117.101 35.541 117.101 37.0257V40.4875H115.987V37.0918C115.987 36.6067 115.892 36.2539 115.7 36.0334C115.517 35.8129 115.219 35.7027 114.807 35.7027C114.337 35.7027 113.958 35.8497 113.672 36.1437C113.393 36.4377 113.253 36.8309 113.253 37.3234V40.4875H112.15V32.3731H113.253V35.7909C113.437 35.4675 113.69 35.2213 114.014 35.0522C114.337 34.8832 114.701 34.7986 115.105 34.7986ZM123.426 37.7313H119.457C119.494 39.0322 120.086 39.6827 121.232 39.6827C121.872 39.6827 122.456 39.4732 122.985 39.0543L123.327 39.8481C123.077 40.0686 122.758 40.245 122.368 40.3773C121.986 40.5022 121.6 40.5647 121.21 40.5647C120.321 40.5647 119.623 40.3111 119.116 39.804C118.609 39.2895 118.355 38.5876 118.355 37.6982C118.355 37.1323 118.465 36.6288 118.686 36.1878C118.914 35.7468 119.23 35.405 119.634 35.1625C120.038 34.9199 120.497 34.7986 121.012 34.7986C121.762 34.7986 122.35 35.0412 122.776 35.5263C123.21 36.0114 123.426 36.6839 123.426 37.5439V37.7313ZM121.034 35.6255C120.615 35.6255 120.273 35.7505 120.009 36.0004C119.744 36.2503 119.575 36.6067 119.502 37.0698H122.445C122.401 36.5994 122.258 36.2429 122.015 36.0004C121.773 35.7505 121.446 35.6255 121.034 35.6255ZM127.471 34.7986C127.641 34.7986 127.817 34.8244 128.001 34.8758L127.979 35.8901C127.78 35.8166 127.563 35.7799 127.328 35.7799C126.821 35.7799 126.439 35.9342 126.182 36.2429C125.932 36.5443 125.807 36.9265 125.807 37.3895V40.4875H124.704V36.4965C124.704 35.9158 124.675 35.394 124.616 34.9309H125.652L125.752 35.9342C125.899 35.5667 126.126 35.2874 126.435 35.0963C126.744 34.8979 127.089 34.7986 127.471 34.7986Z" fill="#4FDFB1"/>
<mask id="mask0_1_76" style="mask-type:alpha" maskUnits="userSpaceOnUse" x="50" y="28" width="14" height="16">
<rect x="50.2666" y="28.5444" width="13.7156" height="14.9067" fill="#C4C4C4"/>
</mask>
<g mask="url(#mask0_1_76)">
<path fill-rule="evenodd" clip-rule="evenodd" d="M61.0062 36.3809L57.1798 38.5771L53.3533 36.3809L57.1798 30.2152L61.0062 36.3809ZM45.0413 48.4729C45.1055 48.4729 45.1594 48.4205 45.1594 48.3581C45.1594 47.6415 44.6018 46.9752 43.8328 46.9772C43.0638 46.9772 42.5145 47.6455 42.5145 48.3621C42.5145 49.0788 43.0617 49.7471 43.8328 49.7471C44.2826 49.7471 44.7407 49.5558 44.9708 49.1653C44.9811 49.1452 44.9915 49.1251 44.9853 49.0888C44.9791 49.0526 44.9542 49.0224 44.921 49.0083C44.8588 48.9821 44.8091 49.0103 44.7759 49.0546C44.5458 49.3726 44.2432 49.5236 43.8328 49.5236C43.2337 49.5236 42.8088 49.0224 42.7508 48.4729H45.0413ZM43.8328 47.1966C44.4318 47.1966 44.8651 47.6979 44.9148 48.2474H42.7508C42.8088 47.6979 43.2337 47.1966 43.8328 47.1966ZM48.051 47.1423C48.051 47.0879 48.0033 47.0316 47.937 47.0316H47.3255V46.172C47.3255 46.1016 47.2654 46.0512 47.1887 46.0633C47.1327 46.0714 47.0954 46.1217 47.0954 46.1761V47.0316H46.5047C46.4404 47.0316 46.3907 47.0859 46.3907 47.1423C46.3907 47.2047 46.4383 47.253 46.5047 47.253H47.0954V49.5921C47.0954 49.6464 47.1431 49.7028 47.2094 49.7028C47.2737 49.7028 47.3234 49.6484 47.3234 49.5921V47.253H47.937C48.0013 47.253 48.051 47.2067 48.051 47.1423ZM51.6826 49.578V48.1608C51.6826 47.5569 51.2971 46.9833 50.6255 46.9833C50.2171 46.9833 49.8647 47.2147 49.6678 47.5569V44.924C49.6678 44.8696 49.6202 44.8133 49.5538 44.8133C49.4896 44.8133 49.4398 44.8676 49.4398 44.924V49.578C49.4398 49.6484 49.4999 49.6988 49.5766 49.6867C49.6326 49.6786 49.6699 49.6283 49.6699 49.5739V48.5111C49.6699 48.5078 49.6685 48.4937 49.6668 48.4773C49.6645 48.454 49.6616 48.4259 49.6616 48.4165C49.6202 47.8025 49.9228 47.2067 50.6275 47.2067C51.1769 47.2067 51.4546 47.6838 51.4546 48.1608V49.578C51.4546 49.6404 51.5023 49.6887 51.5686 49.6887C51.6246 49.6887 51.6826 49.6424 51.6826 49.578ZM55.6687 48.4729C55.7329 48.4729 55.7868 48.4205 55.7868 48.3581C55.7848 47.6415 55.2292 46.9752 54.4602 46.9772C53.6912 46.9772 53.1419 47.6455 53.1419 48.3621C53.1419 49.0788 53.6891 49.7471 54.4602 49.7471C54.91 49.7471 55.3681 49.5558 55.5982 49.1653C55.6086 49.1452 55.6189 49.1251 55.6127 49.0888C55.6065 49.0526 55.5816 49.0224 55.5485 49.0083C55.4863 48.9821 55.4365 49.0103 55.4034 49.0546C55.1733 49.3726 54.8706 49.5236 54.4602 49.5236C53.8612 49.5236 53.4362 49.0224 53.3782 48.4729H55.6687ZM54.4582 47.1966C55.0572 47.1966 55.4904 47.6979 55.5402 48.2474H53.3761C53.4342 47.6979 53.8591 47.1966 54.4582 47.1966ZM58.4919 47.253C58.5562 47.2449 58.5976 47.2067 58.5976 47.1342C58.5976 47.0698 58.5313 47.0316 58.4753 47.0296C58.0835 47.0296 57.7063 47.3234 57.5177 47.6334V47.1403C57.5177 47.0698 57.4575 47.0195 57.3809 47.0316C57.3249 47.0396 57.2876 47.0899 57.2876 47.1443V49.5699C57.2876 49.6404 57.3477 49.6907 57.4244 49.6786C57.4803 49.6706 57.5177 49.6202 57.5177 49.5659V48.503C57.5177 47.881 57.8203 47.3476 58.4919 47.253ZM62.2396 48.4729C62.3038 48.4729 62.3577 48.4205 62.3577 48.3581C62.3557 47.6415 61.8001 46.9752 61.0311 46.9772C60.2621 46.9772 59.7128 47.6455 59.7128 48.3621C59.7128 49.0788 60.26 49.7471 61.0311 49.7471C61.4809 49.7471 61.939 49.5558 62.1691 49.1653C62.1795 49.1452 62.1898 49.1251 62.1836 49.0888C62.1774 49.0526 62.1525 49.0224 62.1194 49.0083C62.0572 48.9821 62.0074 49.0103 61.9743 49.0546C61.7442 49.3726 61.4415 49.5236 61.0311 49.5236C60.4321 49.5236 60.0071 49.0224 59.9491 48.4729H62.2396ZM61.029 47.1966C61.6281 47.1966 62.0613 47.6979 62.1111 48.2474H59.947C60.0051 47.6979 60.43 47.1966 61.029 47.1966ZM66.0536 49.5921V47.1624C66.0536 47.1121 66.0204 47.0658 65.9707 47.0497C65.8899 47.0275 65.8235 47.092 65.8235 47.1564V48.0642C65.8235 48.8352 65.6432 49.5357 64.8721 49.5357C64.3228 49.5357 64.045 49.0586 64.045 48.5816V47.1564C64.045 47.102 63.9973 47.0457 63.931 47.0457C63.8668 47.0457 63.817 47.1 63.817 47.1564V48.5816C63.817 49.1854 64.1943 49.7591 64.8742 49.7591C65.3012 49.7591 65.637 49.4975 65.8256 49.1311V49.5921C65.8256 49.6545 65.8733 49.7028 65.9396 49.7028C65.9956 49.7028 66.0536 49.6565 66.0536 49.5921ZM71.8451 49.578V48.1528C71.8451 47.5489 71.4596 46.9833 70.79 46.9812C70.3154 46.9812 69.9464 47.2751 69.7578 47.6898C69.6106 47.2671 69.2499 46.9812 68.7835 46.9812C68.3752 46.9812 68.0228 47.2047 67.8259 47.5469V47.1403C67.8259 47.0698 67.7658 47.0195 67.6891 47.0316C67.6331 47.0396 67.5958 47.0899 67.5958 47.1443V49.578C67.5958 49.6484 67.6559 49.6988 67.7326 49.6867C67.7886 49.6786 67.8259 49.6283 67.8259 49.5739V48.503C67.8315 48.4975 67.8295 48.4808 67.8276 48.4655C67.8267 48.4585 67.8259 48.4518 67.8259 48.4467C67.801 47.7381 68.0871 47.2047 68.7835 47.2047C69.3328 47.2047 69.6106 47.6737 69.6106 48.1508V49.576C69.6106 49.6384 69.6583 49.6867 69.7246 49.6867C69.7806 49.6867 69.8386 49.6404 69.8386 49.576V48.4789C69.8386 47.9233 70.1019 47.2067 70.79 47.2067C71.3393 47.2067 71.6171 47.6757 71.6171 48.1528V49.578C71.6171 49.6404 71.6648 49.6887 71.7311 49.6887C71.7871 49.6887 71.8451 49.6424 71.8451 49.578ZM61.0083 37.0855L57.1798 42.3212L53.3533 37.0855L57.1798 39.2796L61.0083 37.0855Z" fill="#4FDFB1"/>
</g>
<defs>
<filter id="filter0_d_1_76" x="0.524997" y="0.699926" width="66.15" height="66.15" filterUnits="userSpaceOnUse" color-interpolation-filters="sRGB">
<feFlood flood-opacity="0" result="BackgroundImageFix"/>
<feColorMatrix in="SourceAlpha" type="matrix" values="0 0 0 0 0 0 0 0 0 0 0 0 0 0 0 0 0 0 127 0" result="hardAlpha"/>
<feOffset dx="2.45" dy="4.9"/>
<feGaussianBlur stdDeviation="9.1875"/>
<feComposite in2="hardAlpha" operator="out"/>
<feColorMatrix type="matrix" values="0 0 0 0 0.309804 0 0 0 0 0.87451 0 0 0 0 0.694118 0 0 0 0.35 0"/>
<feBlend mode="normal" in2="BackgroundImageFix" result="effect1_dropShadow_1_76"/>
<feBlend mode="normal" in="SourceGraphic" in2="effect1_dropShadow_1_76" result="shape"/>
</filter>
<clipPath id="clip0_1_76">
<rect width="14.7" height="14.7" fill="white" transform="translate(23.7999 21.5249)"/>
</clipPath>
</defs>
</svg>
