<svg width="125" height="67" viewBox="0 0 125 67" fill="none" xmlns="http://www.w3.org/2000/svg">
<path d="M58.3192 16.6727H56.2184V22.075H55.4466V16.6727H53.3457V15.9867H58.3192V16.6727ZM60.0765 22.1607C59.6306 22.1607 59.2361 22.0549 58.8931 21.8434C58.5559 21.6262 58.2929 21.3432 58.1042 20.9945C57.9156 20.6401 57.8213 20.2571 57.8213 19.8455C57.8213 19.4281 57.9156 19.0451 58.1042 18.6964C58.2986 18.342 58.5644 18.059 58.9017 17.8475C59.2447 17.6302 59.6363 17.5216 60.0765 17.5216C60.5224 17.5216 60.914 17.6302 61.2513 17.8475C61.5943 18.059 61.8601 18.342 62.0487 18.6964C62.2431 19.0451 62.3403 19.4281 62.3403 19.8455C62.3403 20.2571 62.2431 20.6401 62.0487 20.9945C61.8601 21.3432 61.5971 21.6262 61.2598 21.8434C60.9226 22.0549 60.5281 22.1607 60.0765 22.1607ZM58.593 19.854C58.593 20.1627 58.6588 20.4428 58.7902 20.6944C58.9274 20.9459 59.1075 21.146 59.3305 21.2946C59.5534 21.4375 59.8021 21.509 60.0765 21.509C60.3509 21.509 60.5996 21.4347 60.8225 21.2861C61.0512 21.1374 61.2313 20.9373 61.3627 20.6858C61.4999 20.4286 61.5685 20.1456 61.5685 19.8369C61.5685 19.5282 61.4999 19.2481 61.3627 18.9965C61.2313 18.745 61.0512 18.5449 60.8225 18.3963C60.5996 18.2476 60.3509 18.1733 60.0765 18.1733C59.8021 18.1733 59.5534 18.2505 59.3305 18.4049C59.1075 18.5535 58.9274 18.7536 58.7902 19.0051C58.6588 19.2566 58.593 19.5396 58.593 19.854ZM65.5029 21.852C65.4115 21.892 65.2657 21.9492 65.0656 22.0235C64.8712 22.0978 64.654 22.135 64.4139 22.135C64.1395 22.135 63.9023 22.0607 63.7022 21.912C63.5021 21.7577 63.4021 21.5204 63.4021 21.2003V18.1905H62.7932V17.5988H63.4021V16.1068H64.1567V17.5988H65.1599V18.1905H64.1567V20.9688C64.1681 21.1288 64.2224 21.2489 64.3196 21.3289C64.4168 21.4032 64.5311 21.4404 64.6626 21.4404C64.8112 21.4404 64.9484 21.4147 65.0742 21.3632C65.1999 21.3118 65.2828 21.2746 65.3229 21.2518L65.5029 21.852ZM65.8508 20.7801C65.8508 20.4943 65.9308 20.2485 66.0909 20.0427C66.2566 19.8312 66.4824 19.6682 66.7683 19.5539C67.0541 19.4396 67.3857 19.3824 67.763 19.3824C67.9631 19.3824 68.1746 19.3996 68.3975 19.4339C68.6205 19.4624 68.8177 19.5082 68.9892 19.5711V19.2452C68.9892 18.9022 68.8863 18.6335 68.6805 18.4392C68.4747 18.2391 68.1832 18.139 67.8059 18.139C67.56 18.139 67.3228 18.1848 67.0941 18.2762C66.8712 18.362 66.6339 18.4877 66.3824 18.6535L66.108 18.1219C66.3996 17.9218 66.6911 17.7732 66.9827 17.676C67.2742 17.5731 67.5772 17.5216 67.8916 17.5216C68.4633 17.5216 68.9149 17.6817 69.2465 18.0018C69.578 18.3162 69.7438 18.7564 69.7438 19.3224V21.2175C69.7438 21.3947 69.8238 21.4861 69.9839 21.4919V22.075C69.9096 22.0864 69.8438 22.095 69.7867 22.1007C69.7352 22.1064 69.6924 22.1093 69.6581 22.1093C69.4808 22.1093 69.3465 22.0607 69.255 21.9635C69.1693 21.8663 69.1207 21.7634 69.1093 21.6548L69.0921 21.3718C68.8977 21.6233 68.6433 21.8177 68.3289 21.9549C68.0145 22.0921 67.703 22.1607 67.3943 22.1607C67.097 22.1607 66.8312 22.1007 66.5968 21.9806C66.3624 21.8549 66.1795 21.6891 66.048 21.4833C65.9165 21.2718 65.8508 21.0374 65.8508 20.7801ZM68.7663 21.0974C68.8349 21.0174 68.8892 20.9373 68.9292 20.8573C68.9692 20.7716 68.9892 20.7001 68.9892 20.6429V20.0856C68.6233 19.9426 68.246 19.8712 67.8573 19.8712C67.4743 19.8712 67.1627 19.9484 66.9226 20.1027C66.6882 20.2513 66.5711 20.4571 66.5711 20.7201C66.5711 20.863 66.6082 21.0031 66.6825 21.1403C66.7626 21.2718 66.8769 21.3804 67.0255 21.4661C67.1799 21.5519 67.3685 21.5948 67.5915 21.5948C67.8259 21.5948 68.0488 21.549 68.2603 21.4576C68.4718 21.3604 68.6405 21.2403 68.7663 21.0974ZM70.9676 15.8152H71.7222V20.9173C71.7222 21.1631 71.7565 21.3146 71.8251 21.3718C71.8937 21.429 71.9765 21.4576 72.0737 21.4576C72.1938 21.4576 72.3081 21.4461 72.4167 21.4233C72.5253 21.3947 72.6168 21.3661 72.6911 21.3375L72.8112 21.9549C72.6854 22.0064 72.5368 22.0492 72.3653 22.0835C72.1938 22.1178 72.0423 22.135 71.9108 22.135C71.6193 22.135 71.3877 22.0521 71.2162 21.8863C71.0504 21.7205 70.9676 21.489 70.9676 21.1917V15.8152ZM75.4333 22.075V15.9867H76.2051V22.075H75.4333ZM81.4252 22.075H80.6706V19.5711C80.6706 19.0966 80.5963 18.7507 80.4477 18.5335C80.3048 18.3105 80.0847 18.1991 79.7874 18.1991C79.5816 18.1991 79.3758 18.2505 79.17 18.3534C78.9699 18.4563 78.7899 18.5964 78.6298 18.7736C78.4754 18.9451 78.364 19.1452 78.2954 19.3738V22.075H77.5408V17.5988H78.2268V18.5592C78.404 18.2448 78.6584 17.9933 78.9899 17.8046C79.3272 17.616 79.6931 17.5216 80.0875 17.5216C80.4363 17.5216 80.7049 17.6045 80.8936 17.7703C81.088 17.9304 81.2252 18.1533 81.3052 18.4392C81.3852 18.7193 81.4252 19.0394 81.4252 19.3996V22.075ZM83.7928 22.075L82.0349 17.5988H82.8238L84.2301 21.3547L85.6364 17.5988H86.3739L84.616 22.075H83.7928ZM88.9591 22.1607C88.5132 22.1607 88.1188 22.0549 87.7758 21.8434C87.4328 21.6319 87.1641 21.3489 86.9697 20.9945C86.7753 20.6401 86.6782 20.2542 86.6782 19.8369C86.6782 19.4138 86.7753 19.028 86.9697 18.6793C87.1641 18.3305 87.4328 18.0504 87.7758 17.8389C88.1245 17.6274 88.5218 17.5216 88.9677 17.5216C89.4193 17.5216 89.8109 17.6302 90.1425 17.8475C90.4797 18.059 90.7398 18.3391 90.9228 18.6878C91.1114 19.0308 91.2058 19.4024 91.2058 19.8026C91.2058 19.9283 91.2 20.0255 91.1886 20.0941H87.4756C87.4985 20.3857 87.5785 20.6458 87.7157 20.8745C87.8586 21.0974 88.0416 21.2746 88.2645 21.4061C88.4875 21.5319 88.7276 21.5948 88.9848 21.5948C89.2592 21.5948 89.5165 21.5262 89.7566 21.389C90.0024 21.2518 90.171 21.0717 90.2625 20.8487L90.9142 21.0288C90.7713 21.3604 90.5226 21.6319 90.1682 21.8434C89.8137 22.0549 89.4107 22.1607 88.9591 22.1607ZM87.4499 19.5711H90.5026C90.4797 19.2795 90.3968 19.0223 90.2539 18.7993C90.111 18.5764 89.9281 18.402 89.7051 18.2762C89.4822 18.1505 89.2364 18.0876 88.9677 18.0876C88.7047 18.0876 88.4618 18.1505 88.2388 18.2762C88.0159 18.402 87.8329 18.5764 87.69 18.7993C87.5528 19.0223 87.4728 19.2795 87.4499 19.5711ZM93.5795 22.1607C93.2079 22.1607 92.8592 22.1007 92.5333 21.9806C92.2075 21.8549 91.9274 21.6691 91.693 21.4233L91.9845 20.8916C92.2418 21.1317 92.499 21.3032 92.7563 21.4061C93.0135 21.509 93.2765 21.5605 93.5452 21.5605C93.8539 21.5605 94.1054 21.5033 94.2998 21.389C94.4942 21.2689 94.5913 21.0945 94.5913 20.8659C94.5913 20.7001 94.5399 20.5772 94.437 20.4972C94.3398 20.4171 94.1997 20.3514 94.0168 20.2999C93.8339 20.2428 93.6166 20.1799 93.3651 20.1113C92.9021 19.9798 92.5476 19.8254 92.3018 19.6482C92.0617 19.4653 91.9417 19.1995 91.9417 18.8508C91.9417 18.4277 92.1017 18.1019 92.4219 17.8732C92.7477 17.6388 93.1622 17.5216 93.6652 17.5216C94.3398 17.5216 94.8715 17.7246 95.2602 18.1305L94.9172 18.6535C94.5685 18.2934 94.1369 18.1133 93.6224 18.1133C93.468 18.1133 93.3165 18.1333 93.1679 18.1733C93.0193 18.2076 92.8963 18.2734 92.7992 18.3706C92.702 18.462 92.6534 18.5935 92.6534 18.765C92.6534 18.9765 92.7391 19.128 92.9106 19.2195C93.0821 19.3109 93.3337 19.4053 93.6652 19.5025C94.0025 19.5996 94.2941 19.6968 94.5399 19.794C94.7914 19.8912 94.9858 20.017 95.123 20.1713C95.2602 20.3257 95.3288 20.54 95.3288 20.8144C95.3288 21.2375 95.1687 21.569 94.8486 21.8091C94.5285 22.0435 94.1054 22.1607 93.5795 22.1607ZM98.5468 21.852C98.4554 21.892 98.3096 21.9492 98.1095 22.0235C97.9151 22.0978 97.6979 22.135 97.4578 22.135C97.1834 22.135 96.9462 22.0607 96.7461 21.912C96.546 21.7577 96.446 21.5204 96.446 21.2003V18.1905H95.8371V17.5988H96.446V16.1068H97.2006V17.5988H98.2038V18.1905H97.2006V20.9688C97.212 21.1288 97.2663 21.2489 97.3635 21.3289C97.4607 21.4032 97.575 21.4404 97.7065 21.4404C97.8551 21.4404 97.9923 21.4147 98.1181 21.3632C98.2438 21.3118 98.3267 21.2746 98.3668 21.2518L98.5468 21.852ZM101.168 22.1607C100.723 22.1607 100.328 22.0549 99.9851 21.8434C99.6421 21.6319 99.3734 21.3489 99.179 20.9945C98.9847 20.6401 98.8875 20.2542 98.8875 19.8369C98.8875 19.4138 98.9847 19.028 99.179 18.6793C99.3734 18.3305 99.6421 18.0504 99.9851 17.8389C100.334 17.6274 100.731 17.5216 101.177 17.5216C101.629 17.5216 102.02 17.6302 102.352 17.8475C102.689 18.059 102.949 18.3391 103.132 18.6878C103.321 19.0308 103.415 19.4024 103.415 19.8026C103.415 19.9283 103.409 20.0255 103.398 20.0941H99.685C99.7078 20.3857 99.7879 20.6458 99.9251 20.8745C100.068 21.0974 100.251 21.2746 100.474 21.4061C100.697 21.5319 100.937 21.5948 101.194 21.5948C101.469 21.5948 101.726 21.5262 101.966 21.389C102.212 21.2518 102.38 21.0717 102.472 20.8487L103.124 21.0288C102.981 21.3604 102.732 21.6319 102.378 21.8434C102.023 22.0549 101.62 22.1607 101.168 22.1607ZM99.6592 19.5711H102.712C102.689 19.2795 102.606 19.0223 102.463 18.7993C102.32 18.5764 102.137 18.402 101.914 18.2762C101.692 18.1505 101.446 18.0876 101.177 18.0876C100.914 18.0876 100.671 18.1505 100.448 18.2762C100.225 18.402 100.042 18.5764 99.8993 18.7993C99.7621 19.0223 99.6821 19.2795 99.6592 19.5711ZM111.002 22.075H110.248V19.5711C110.248 19.1023 110.171 18.7564 110.016 18.5335C109.868 18.3105 109.645 18.1991 109.347 18.1991C109.044 18.1991 108.77 18.3105 108.524 18.5335C108.278 18.7507 108.104 19.0337 108.001 19.3824V22.075H107.247V19.5711C107.247 19.0966 107.172 18.7507 107.024 18.5335C106.875 18.3105 106.652 18.1991 106.355 18.1991C106.058 18.1991 105.783 18.3077 105.532 18.5249C105.286 18.7364 105.111 19.0194 105.008 19.3738V22.075H104.254V17.5988H104.94V18.5592C105.123 18.2276 105.36 17.9732 105.652 17.796C105.943 17.6131 106.272 17.5216 106.638 17.5216C107.009 17.5216 107.307 17.6245 107.53 17.8303C107.752 18.0304 107.89 18.2905 107.941 18.6107C108.341 17.8846 108.91 17.5216 109.648 17.5216C109.991 17.5216 110.259 17.6045 110.454 17.7703C110.654 17.9304 110.794 18.1533 110.874 18.4392C110.96 18.7193 111.002 19.0394 111.002 19.3996V22.075ZM114.157 22.1607C113.711 22.1607 113.316 22.0549 112.973 21.8434C112.63 21.6319 112.362 21.3489 112.167 20.9945C111.973 20.6401 111.876 20.2542 111.876 19.8369C111.876 19.4138 111.973 19.028 112.167 18.6793C112.362 18.3305 112.63 18.0504 112.973 17.8389C113.322 17.6274 113.719 17.5216 114.165 17.5216C114.617 17.5216 115.008 17.6302 115.34 17.8475C115.677 18.059 115.937 18.3391 116.12 18.6878C116.309 19.0308 116.403 19.4024 116.403 19.8026C116.403 19.9283 116.397 20.0255 116.386 20.0941H112.673C112.696 20.3857 112.776 20.6458 112.913 20.8745C113.056 21.0974 113.239 21.2746 113.462 21.4061C113.685 21.5319 113.925 21.5948 114.182 21.5948C114.457 21.5948 114.714 21.5262 114.954 21.389C115.2 21.2518 115.368 21.0717 115.46 20.8487L116.112 21.0288C115.969 21.3604 115.72 21.6319 115.366 21.8434C115.011 22.0549 114.608 22.1607 114.157 22.1607ZM112.647 19.5711H115.7C115.677 19.2795 115.594 19.0223 115.451 18.7993C115.308 18.5764 115.126 18.402 114.903 18.2762C114.68 18.1505 114.434 18.0876 114.165 18.0876C113.902 18.0876 113.659 18.1505 113.436 18.2762C113.213 18.402 113.03 18.5764 112.887 18.7993C112.75 19.0223 112.67 19.2795 112.647 19.5711ZM121.126 22.075H120.372V19.5711C120.372 19.0966 120.298 18.7507 120.149 18.5335C120.006 18.3105 119.786 18.1991 119.489 18.1991C119.283 18.1991 119.077 18.2505 118.871 18.3534C118.671 18.4563 118.491 18.5964 118.331 18.7736C118.177 18.9451 118.065 19.1452 117.997 19.3738V22.075H117.242V17.5988H117.928V18.5592C118.105 18.2448 118.36 17.9933 118.691 17.8046C119.028 17.616 119.394 17.5216 119.789 17.5216C120.137 17.5216 120.406 17.6045 120.595 17.7703C120.789 17.9304 120.926 18.1533 121.006 18.4392C121.086 18.7193 121.126 19.0394 121.126 19.3996V22.075ZM124.573 21.852C124.482 21.892 124.336 21.9492 124.136 22.0235C123.942 22.0978 123.724 22.135 123.484 22.135C123.21 22.135 122.973 22.0607 122.773 21.912C122.572 21.7577 122.472 21.5204 122.472 21.2003V18.1905H121.864V17.5988H122.472V16.1068H123.227V17.5988H124.23V18.1905H123.227V20.9688C123.238 21.1288 123.293 21.2489 123.39 21.3289C123.487 21.4032 123.601 21.4404 123.733 21.4404C123.882 21.4404 124.019 21.4147 124.145 21.3632C124.27 21.3118 124.353 21.2746 124.393 21.2518L124.573 21.852Z" fill="#272727"/>
<g filter="url(#filter0_d_1_61)">
<rect x="16.45" y="14.075" width="29.4" height="29.4" rx="2.45" fill="#FBB142"/>
</g>
<g clip-path="url(#clip0_1_61)">
<path d="M31.1498 34.9C27.767 34.9 25.0248 32.1579 25.0248 28.775C25.0248 25.3922 27.767 22.65 31.1498 22.65C34.5326 22.65 37.2748 25.3922 37.2748 28.775C37.2748 32.1579 34.5326 34.9 31.1498 34.9ZM31.1498 33.675C32.4494 33.675 33.6957 33.1588 34.6146 32.2398C35.5336 31.3209 36.0498 30.0746 36.0498 28.775C36.0498 27.4755 35.5336 26.2291 34.6146 25.3102C33.6957 24.3913 32.4494 23.875 31.1498 23.875C29.8503 23.875 28.6039 24.3913 27.685 25.3102C26.7661 26.2291 26.2498 27.4755 26.2498 28.775C26.2498 30.0746 26.7661 31.3209 27.685 32.2398C28.6039 33.1588 29.8503 33.675 31.1498 33.675ZM31.1498 25.7431L34.1817 28.775L31.1498 31.8069L28.1179 28.775L31.1498 25.7431ZM31.1498 27.4759L29.8507 28.775L31.1498 30.0741L32.4489 28.775L31.1498 27.4759Z" fill="white"/>
</g>
<path d="M72.0924 40.4758C71.181 40.4758 70.4864 40.134 70.0087 39.4504C69.5309 38.7669 69.292 37.771 69.292 36.4627C69.292 35.1544 69.5309 34.1584 70.0087 33.4749C70.4864 32.7913 71.181 32.4496 72.0924 32.4496C73.0038 32.4496 73.6984 32.7913 74.1761 33.4749C74.6539 34.1511 74.8927 35.1433 74.8927 36.4516C74.8927 37.7673 74.6539 38.7669 74.1761 39.4504C73.6984 40.134 73.0038 40.4758 72.0924 40.4758ZM72.0924 39.5607C72.6583 39.5607 73.0736 39.3108 73.3382 38.811C73.6102 38.3038 73.7461 37.5174 73.7461 36.4516C73.7461 35.3859 73.6138 34.6068 73.3492 34.1143C73.0846 33.6219 72.6657 33.3757 72.0924 33.3757C71.5264 33.3757 71.1075 33.6256 70.8355 34.1254C70.5709 34.6178 70.4386 35.3932 70.4386 36.4516C70.4386 37.5174 70.5709 38.3038 70.8355 38.811C71.1075 39.3108 71.5264 39.5607 72.0924 39.5607ZM77.3801 39.0646V40.3876H76.0571V39.0646H77.3801ZM81.7265 35.4153C82.219 35.4153 82.6489 35.5219 83.0164 35.735C83.3913 35.9408 83.6779 36.2348 83.8764 36.617C84.0822 36.9919 84.1851 37.4255 84.1851 37.918C84.1851 38.4251 84.0712 38.8698 83.8433 39.252C83.6228 39.6342 83.3031 39.9319 82.8841 40.145C82.4652 40.3582 81.9764 40.4647 81.4178 40.4647C80.9327 40.4647 80.455 40.3802 79.9846 40.2112C79.5142 40.0421 79.1246 39.8106 78.8159 39.5166L79.2128 38.6787C79.9405 39.252 80.6791 39.5386 81.4288 39.5386C81.9507 39.5386 82.3549 39.399 82.6416 39.1197C82.9356 38.833 83.0826 38.4398 83.0826 37.94C83.0826 37.4623 82.9356 37.0764 82.6416 36.7824C82.3549 36.4884 81.9691 36.3414 81.484 36.3414C80.7784 36.3414 80.2124 36.6097 79.7861 37.1462H79.0474V32.5378H83.8543V33.4528H80.172V35.9445C80.5909 35.5917 81.1091 35.4153 81.7265 35.4153ZM88.3703 35.4153C88.8407 35.4153 89.256 35.5219 89.6161 35.735C89.9836 35.9408 90.2703 36.2348 90.4761 36.617C90.6819 36.9919 90.7848 37.4255 90.7848 37.918C90.7848 38.4104 90.6745 38.8514 90.454 39.241C90.2335 39.6232 89.9285 39.9245 89.5389 40.145C89.1494 40.3655 88.7084 40.4758 88.2159 40.4758C87.2457 40.4758 86.496 40.145 85.9668 39.4835C85.445 38.822 85.1841 37.8739 85.1841 36.6391C85.1841 35.7644 85.3053 35.0147 85.5479 34.39C85.7978 33.7579 86.1543 33.2764 86.6173 32.9457C87.0877 32.6149 87.6463 32.4496 88.2931 32.4496C88.7562 32.4496 89.2045 32.5304 89.6382 32.6921C90.0792 32.8538 90.4614 33.089 90.7848 33.3977L90.3768 34.2356C89.6859 33.6623 89.0024 33.3757 88.3262 33.3757C87.6867 33.3757 87.1943 33.6586 86.8488 34.2246C86.5034 34.7832 86.3307 35.5807 86.3307 36.617V36.628C86.4997 36.2458 86.7643 35.9482 87.1245 35.735C87.492 35.5219 87.9072 35.4153 88.3703 35.4153ZM88.1608 39.5497C88.6165 39.5497 88.984 39.4027 89.2633 39.1087C89.5426 38.8147 89.6823 38.4251 89.6823 37.94C89.6823 37.4623 89.5426 37.0764 89.2633 36.7824C88.984 36.4884 88.6128 36.3414 88.1498 36.3414C87.6867 36.3414 87.3045 36.4921 87.0032 36.7934C86.7092 37.0874 86.5622 37.4696 86.5622 37.94C86.5622 38.4178 86.7092 38.8073 87.0032 39.1087C87.2972 39.4027 87.6831 39.5497 88.1608 39.5497ZM95.1199 32.5378H100.213V33.4639H96.2445V35.9335H99.993V36.8596H96.2445V39.4615H100.213V40.3876H95.1199V32.5378ZM102.979 35.6909V38.4802C102.979 38.8624 103.06 39.1344 103.221 39.2961C103.39 39.4504 103.622 39.5276 103.916 39.5276C104.107 39.5276 104.302 39.4982 104.5 39.4394V40.3435C104.258 40.4243 103.982 40.4647 103.673 40.4647C103.1 40.4647 102.655 40.303 102.339 39.9796C102.023 39.6562 101.865 39.1858 101.865 38.5684V35.6909H100.785V34.831H101.865V33.4418L102.979 33.0559V34.831H104.511V35.6909H102.979ZM108.494 34.6987C109.825 34.6987 110.49 35.441 110.49 36.9257V40.3876H109.376V36.9919C109.376 36.5068 109.281 36.154 109.09 35.9335C108.906 35.713 108.608 35.6027 108.197 35.6027C107.726 35.6027 107.348 35.7497 107.061 36.0437C106.782 36.3377 106.642 36.7309 106.642 37.2234V40.3876H105.54V32.2732H106.642V35.6909C106.826 35.3675 107.079 35.1213 107.403 34.9522C107.726 34.7832 108.09 34.6987 108.494 34.6987ZM116.816 37.6313H112.847C112.883 38.9323 113.475 39.5827 114.622 39.5827C115.261 39.5827 115.846 39.3733 116.375 38.9543L116.717 39.7481C116.467 39.9686 116.147 40.145 115.757 40.2773C115.375 40.4023 114.989 40.4647 114.6 40.4647C113.71 40.4647 113.012 40.2112 112.505 39.704C111.998 39.1895 111.744 38.4876 111.744 37.5982C111.744 37.0323 111.854 36.5288 112.075 36.0878C112.303 35.6468 112.619 35.305 113.023 35.0625C113.427 34.8199 113.887 34.6987 114.401 34.6987C115.151 34.6987 115.739 34.9412 116.165 35.4263C116.599 35.9114 116.816 36.5839 116.816 37.4439V37.6313ZM114.423 35.5255C114.004 35.5255 113.663 35.6505 113.398 35.9004C113.133 36.1503 112.964 36.5068 112.891 36.9698H115.835C115.79 36.4994 115.647 36.1429 115.405 35.9004C115.162 35.6505 114.835 35.5255 114.423 35.5255ZM120.861 34.6987C121.03 34.6987 121.206 34.7244 121.39 34.7758L121.368 35.7901C121.169 35.7166 120.953 35.6799 120.717 35.6799C120.21 35.6799 119.828 35.8342 119.571 36.1429C119.321 36.4443 119.196 36.8265 119.196 37.2895V40.3876H118.094V36.3965C118.094 35.8159 118.064 35.294 118.005 34.831H119.042L119.141 35.8342C119.288 35.4667 119.516 35.1874 119.824 34.9963C120.133 34.7979 120.479 34.6987 120.861 34.6987Z" fill="#FBB142"/>
<mask id="mask0_1_61" style="mask-type:alpha" maskUnits="userSpaceOnUse" x="51" y="28" width="14" height="16">
<rect x="51.2666" y="28.8243" width="13.7156" height="14.9067" fill="#C4C4C4"/>
</mask>
<g mask="url(#mask0_1_61)">
<path fill-rule="evenodd" clip-rule="evenodd" d="M62.0062 36.6608L58.1798 38.857L54.3533 36.6608L58.1798 30.4951L62.0062 36.6608ZM46.0413 48.7528C46.1055 48.7528 46.1594 48.7004 46.1594 48.638C46.1594 47.9214 45.6018 47.2551 44.8328 47.2571C44.0638 47.2571 43.5145 47.9254 43.5145 48.642C43.5145 49.3587 44.0617 50.027 44.8328 50.027C45.2826 50.027 45.7407 49.8357 45.9708 49.4452C45.9811 49.4251 45.9915 49.405 45.9853 49.3687C45.9791 49.3325 45.9542 49.3023 45.921 49.2882C45.8588 49.262 45.8091 49.2902 45.7759 49.3345C45.5458 49.6526 45.2432 49.8035 44.8328 49.8035C44.2337 49.8035 43.8088 49.3023 43.7508 48.7528H46.0413ZM44.8328 47.4765C45.4318 47.4765 45.8651 47.9778 45.9148 48.5273H43.7508C43.8088 47.9778 44.2337 47.4765 44.8328 47.4765ZM49.051 47.4222C49.051 47.3678 49.0033 47.3115 48.937 47.3115H48.3255V46.4519C48.3255 46.3815 48.2654 46.3312 48.1887 46.3432C48.1327 46.3513 48.0954 46.4016 48.0954 46.456V47.3115H47.5047C47.4404 47.3115 47.3907 47.3658 47.3907 47.4222C47.3907 47.4846 47.4383 47.5329 47.5047 47.5329H48.0954V49.872C48.0954 49.9263 48.1431 49.9827 48.2094 49.9827C48.2737 49.9827 48.3234 49.9283 48.3234 49.872V47.5329H48.937C49.0013 47.5329 49.051 47.4866 49.051 47.4222ZM52.6826 49.8579V48.4407C52.6826 47.8369 52.2971 47.2632 51.6255 47.2632C51.2171 47.2632 50.8647 47.4947 50.6678 47.8369V45.2039C50.6678 45.1495 50.6202 45.0932 50.5538 45.0932C50.4896 45.0932 50.4398 45.1475 50.4398 45.2039V49.8579C50.4398 49.9283 50.4999 49.9787 50.5766 49.9666C50.6326 49.9585 50.6699 49.9082 50.6699 49.8539V48.791C50.6699 48.7877 50.6685 48.7736 50.6668 48.7572C50.6645 48.7339 50.6616 48.7058 50.6616 48.6964C50.6202 48.0824 50.9228 47.4866 51.6275 47.4866C52.1769 47.4866 52.4546 47.9637 52.4546 48.4407V49.8579C52.4546 49.9203 52.5023 49.9686 52.5686 49.9686C52.6246 49.9686 52.6826 49.9223 52.6826 49.8579ZM56.6687 48.7528C56.7329 48.7528 56.7868 48.7004 56.7868 48.638C56.7848 47.9214 56.2292 47.2551 55.4602 47.2571C54.6912 47.2571 54.1419 47.9254 54.1419 48.642C54.1419 49.3587 54.6891 50.027 55.4602 50.027C55.91 50.027 56.3681 49.8357 56.5982 49.4452C56.6086 49.4251 56.6189 49.405 56.6127 49.3687C56.6065 49.3325 56.5816 49.3023 56.5485 49.2882C56.4863 49.262 56.4365 49.2902 56.4034 49.3345C56.1733 49.6526 55.8706 49.8035 55.4602 49.8035C54.8612 49.8035 54.4362 49.3023 54.3782 48.7528H56.6687ZM55.4582 47.4765C56.0572 47.4765 56.4904 47.9778 56.5402 48.5273H54.3761C54.4342 47.9778 54.8591 47.4765 55.4582 47.4765ZM59.4919 47.5329C59.5562 47.5248 59.5976 47.4866 59.5976 47.4141C59.5976 47.3497 59.5313 47.3115 59.4753 47.3095C59.0835 47.3095 58.7063 47.6034 58.5177 47.9134V47.4202C58.5177 47.3497 58.4575 47.2994 58.3809 47.3115C58.3249 47.3195 58.2876 47.3698 58.2876 47.4242V49.8498C58.2876 49.9203 58.3477 49.9706 58.4244 49.9585C58.4803 49.9505 58.5177 49.9002 58.5177 49.8458V48.783C58.5177 48.1609 58.8203 47.6275 59.4919 47.5329ZM63.2396 48.7528C63.3038 48.7528 63.3577 48.7004 63.3577 48.638C63.3557 47.9214 62.8001 47.2551 62.0311 47.2571C61.2621 47.2571 60.7128 47.9254 60.7128 48.642C60.7128 49.3587 61.26 50.027 62.0311 50.027C62.4809 50.027 62.939 49.8357 63.1691 49.4452C63.1795 49.4251 63.1898 49.405 63.1836 49.3687C63.1774 49.3325 63.1525 49.3023 63.1194 49.2882C63.0572 49.262 63.0074 49.2902 62.9743 49.3345C62.7442 49.6526 62.4415 49.8035 62.0311 49.8035C61.4321 49.8035 61.0071 49.3023 60.9491 48.7528H63.2396ZM62.029 47.4765C62.6281 47.4765 63.0613 47.9778 63.1111 48.5273H60.947C61.0051 47.9778 61.43 47.4765 62.029 47.4765ZM67.0536 49.872V47.4423C67.0536 47.392 67.0204 47.3457 66.9707 47.3296C66.8899 47.3074 66.8235 47.3719 66.8235 47.4363V48.3441C66.8235 49.1151 66.6432 49.8156 65.8721 49.8156C65.3228 49.8156 65.045 49.3385 65.045 48.8615V47.4363C65.045 47.3819 64.9973 47.3256 64.931 47.3256C64.8668 47.3256 64.817 47.3799 64.817 47.4363V48.8615C64.817 49.4653 65.1943 50.039 65.8742 50.039C66.3012 50.039 66.637 49.7774 66.8256 49.411V49.872C66.8256 49.9344 66.8733 49.9827 66.9396 49.9827C66.9956 49.9827 67.0536 49.9364 67.0536 49.872ZM72.8451 49.8579V48.4327C72.8451 47.8288 72.4596 47.2632 71.79 47.2611C71.3154 47.2611 70.9464 47.555 70.7578 47.9697C70.6106 47.547 70.2499 47.2611 69.7835 47.2611C69.3752 47.2611 69.0228 47.4846 68.8259 47.8268V47.4202C68.8259 47.3497 68.7658 47.2994 68.6891 47.3115C68.6331 47.3195 68.5958 47.3698 68.5958 47.4242V49.8579C68.5958 49.9283 68.6559 49.9787 68.7326 49.9666C68.7886 49.9585 68.8259 49.9082 68.8259 49.8539V48.783C68.8315 48.7774 68.8295 48.7607 68.8276 48.7454C68.8267 48.7384 68.8259 48.7317 68.8259 48.7266C68.801 48.018 69.0871 47.4846 69.7835 47.4846C70.3328 47.4846 70.6106 47.9536 70.6106 48.4307V49.8559C70.6106 49.9183 70.6583 49.9666 70.7246 49.9666C70.7806 49.9666 70.8386 49.9203 70.8386 49.8559V48.7588C70.8386 48.2032 71.1019 47.4866 71.79 47.4866C72.3393 47.4866 72.6171 47.9556 72.6171 48.4327V49.8579C72.6171 49.9203 72.6648 49.9686 72.7311 49.9686C72.7871 49.9686 72.8451 49.9223 72.8451 49.8579ZM62.0083 37.3657L58.1798 42.6014L54.3533 37.3657L58.1798 39.5598L62.0083 37.3657Z" fill="#FBB142"/>
</g>
<defs>
<filter id="filter0_d_1_61" x="0.524997" y="0.599951" width="66.15" height="66.15" filterUnits="userSpaceOnUse" color-interpolation-filters="sRGB">
<feFlood flood-opacity="0" result="BackgroundImageFix"/>
<feColorMatrix in="SourceAlpha" type="matrix" values="0 0 0 0 0 0 0 0 0 0 0 0 0 0 0 0 0 0 127 0" result="hardAlpha"/>
<feOffset dx="2.45" dy="4.9"/>
<feGaussianBlur stdDeviation="9.1875"/>
<feComposite in2="hardAlpha" operator="out"/>
<feColorMatrix type="matrix" values="0 0 0 0 0.984314 0 0 0 0 0.694118 0 0 0 0 0.258824 0 0 0 0.35 0"/>
<feBlend mode="normal" in2="BackgroundImageFix" result="effect1_dropShadow_1_61"/>
<feBlend mode="normal" in="SourceGraphic" in2="effect1_dropShadow_1_61" result="shape"/>
</filter>
<clipPath id="clip0_1_61">
<rect width="14.7" height="14.7" fill="white" transform="translate(23.7999 21.4249)"/>
</clipPath>
</defs>
</svg>
